<?xml version="1.0" encoding="UTF-8"?>
<!DOCTYPE svg PUBLIC "-//W3C//DTD SVG 1.1//EN" "http://www.w3.org/Graphics/SVG/1.1/DTD/svg11.dtd">
<!-- Creator: CorelDRAW 2019 (64 Bit) -->
<svg xmlns="http://www.w3.org/2000/svg" xml:space="preserve" width="45px" height="50px" version="1.1" style="shape-rendering:geometricPrecision; text-rendering:geometricPrecision; image-rendering:optimizeQuality; fill-rule:evenodd; clip-rule:evenodd"
viewBox="0 0 25.26 28.33"
 xmlns:xlink="http://www.w3.org/1999/xlink"
 xmlns:xodm="http://www.corel.com/coreldraw/odm/2003">
 <defs>
  <style type="text/css">
   <![CDATA[
    .fil0 {fill:black}
   ]]>
  </style>
 </defs>
 <g id="Camada_x0020_1">
  <metadata id="CorelCorpID_0Corel-Layer"/>
  <path class="fil0" d="M8.5 15.67c0,-0.61 0.07,-0.81 0.31,-1.19 0.38,-0.61 1.02,-1.05 1.66,-1.35 0.2,-0.09 0.94,-0.35 1.18,-0.35 0.2,0 0.17,0.49 0.17,0.72 0,0.32 0.03,0.54 0.03,0.87 0,0.46 0.04,0.72 0.42,0.91 0.33,0.18 0.73,0.09 0.99,-0.17 0.17,-0.16 0.18,-0.4 0.18,-0.71 0,-0.33 0.03,-0.55 0.03,-0.87 0,-0.21 -0.02,-0.75 0.15,-0.75 0.23,0 0.96,0.25 1.16,0.34 0.63,0.27 1.31,0.75 1.68,1.32 0.27,0.42 0.34,0.62 0.34,1.26 0,0.26 -0.03,0.57 -0.11,0.76 -0.41,0.95 -1.43,1.62 -2.4,1.94 -0.78,0.26 -2.5,0.26 -3.29,0 -0.22,-0.08 -0.41,-0.16 -0.61,-0.26 -0.57,-0.26 -1.09,-0.64 -1.46,-1.14 -0.3,-0.39 -0.43,-0.66 -0.43,-1.33zm3.91 -15.67l0.48 0c0.74,0 1.52,0.35 2.06,0.75 0.24,0.18 0.27,0.23 0.48,0.44 1.45,1.45 1.41,3.91 -0.04,5.35 -0.09,0.09 -0.13,0.13 -0.23,0.21 -0.09,0.06 -0.15,0.13 -0.24,0.19 -0.29,0.25 -1.08,0.65 -1.41,0.66l-0.04 1.33c0.28,0.15 0.55,0.28 0.81,0.43l2.34 1.34c0.26,0.14 0.53,0.31 0.78,0.46l6.16 3.61c0.53,0.32 1.01,0.53 1.32,1.11 0.07,0.13 0.38,0.71 0.38,0.83l0 3.79c0,0.19 -0.49,0.99 -0.67,1.23 -0.28,0.36 -2.83,1.78 -3.49,2.17 -0.27,0.17 -0.53,0.31 -0.81,0.47 -0.25,0.15 -0.52,0.31 -0.78,0.46l-2.42 1.39c-0.75,0.43 -2.14,1.26 -2.8,1.6 -0.09,0.04 -0.12,0.07 -0.2,0.11 -0.38,0.21 -0.65,0.4 -1.17,0.4l-0.47 0c-0.39,-0.01 -0.64,-0.05 -1.1,-0.31l-8.23 -4.75c-0.13,-0.08 -0.27,-0.16 -0.41,-0.25 -0.3,-0.17 -0.57,-0.33 -0.86,-0.5 -0.28,-0.17 -0.56,-0.34 -0.84,-0.52 -0.24,-0.14 -0.5,-0.49 -0.63,-0.73 -0.13,-0.21 -0.33,-0.7 -0.35,-1.01 -0.01,-0.16 -0.02,-0.34 -0.03,-0.53l0 -0.8c0.01,-0.13 0.03,-0.15 0.03,-0.31l0 -1.74c0,-0.32 0.04,-0.31 0.14,-0.52 0.16,-0.3 0.29,-0.6 0.5,-0.86 0.29,-0.34 1.95,-1.25 2.52,-1.59l8.63 -4.98c0,-0.46 -0.03,-0.83 -0.03,-1.3 -0.09,-0.04 -0.22,-0.08 -0.31,-0.11 -0.9,-0.36 -1.65,-0.85 -2.14,-1.71 -0.33,-0.58 -0.55,-1.25 -0.55,-1.99 0,-0.61 0.14,-1.12 0.33,-1.55 0.38,-0.83 1.02,-1.46 1.82,-1.89l0.66 -0.25c0.35,-0.1 0.56,-0.12 0.81,-0.13zm-9.14 15.73c0,-0.68 1.1,-1.31 2.22,-0.73 0.9,0.47 0.44,1.65 -0.84,1.65 -0.35,0 -0.68,-0.11 -0.91,-0.24 -0.22,-0.13 -0.47,-0.43 -0.47,-0.68zm6.82 -13.42c0,-1.19 1.56,-2.01 2.51,-1.09 1.16,1.14 0.06,2.6 -0.89,2.6 -0.59,0 -0.77,-0.09 -1.18,-0.5 -0.23,-0.23 -0.44,-0.56 -0.44,-1.01z"/>
 </g>
</svg>
