<svg xmlns="http://www.w3.org/2000/svg" xmlns:xlink="http://www.w3.org/1999/xlink" width="500" zoomAndPan="magnify" viewBox="0 0 375 225" height="300" preserveAspectRatio="xMidYMid meet" version="1.0"><defs><g/><clipPath id="4d6dbc0204"><path d="M 109.46875 13.933594 L 265.46875 13.933594 L 265.46875 141.433594 L 109.46875 141.433594 Z M 109.46875 13.933594 " clip-rule="nonzero"/></clipPath></defs><g clip-path="url(#4d6dbc0204)"><path fill="#000000" d="M 137.832031 86.042969 L 137.832031 114.375 L 187.46875 141.433594 L 237.105469 114.375 L 237.105469 86.042969 L 187.46875 113.101562 Z M 187.46875 13.9375 L 109.46875 56.433594 L 187.46875 98.933594 L 251.285156 64.15625 L 251.285156 113.101562 L 265.46875 113.101562 L 265.46875 56.433594 Z M 187.46875 13.9375 " fill-opacity="1" fill-rule="nonzero"/></g><g fill="#000000" fill-opacity="1"><g transform="translate(91.02204, 181.544094)"><g><path d="M 20.25 -14.84375 C 21.394531 -14.164062 22.265625 -13.296875 22.859375 -12.234375 C 23.453125 -11.179688 23.75 -9.960938 23.75 -8.578125 C 23.75 -7.273438 23.4375 -6.0625 22.8125 -4.9375 C 22.1875 -3.8125 21.304688 -2.816406 20.171875 -1.953125 C 19.140625 -1.160156 17.96875 -0.554688 16.65625 -0.140625 C 15.34375 0.273438 13.953125 0.5 12.484375 0.53125 C 11.023438 0.53125 9.628906 0.328125 8.296875 -0.078125 C 6.960938 -0.484375 5.785156 -1.09375 4.765625 -1.90625 C 3.210938 -3.070312 2.15625 -4.484375 1.59375 -6.140625 L 7.28125 -8.78125 C 7.28125 -8.507812 7.375 -8.171875 7.5625 -7.765625 C 7.75 -7.359375 8.046875 -6.960938 8.453125 -6.578125 C 8.859375 -6.203125 9.382812 -5.878906 10.03125 -5.609375 C 10.6875 -5.335938 11.492188 -5.203125 12.453125 -5.203125 C 13.203125 -5.203125 13.867188 -5.296875 14.453125 -5.484375 C 15.035156 -5.679688 15.523438 -5.921875 15.921875 -6.203125 C 16.316406 -6.484375 16.613281 -6.804688 16.8125 -7.171875 C 17.019531 -7.546875 17.125 -7.921875 17.125 -8.296875 C 17.125 -8.734375 16.976562 -9.140625 16.6875 -9.515625 C 16.40625 -9.898438 15.96875 -10.195312 15.375 -10.40625 C 14.289062 -10.789062 13.144531 -11.109375 11.9375 -11.359375 C 10.726562 -11.617188 9.550781 -11.945312 8.40625 -12.34375 C 7.269531 -12.738281 6.210938 -13.257812 5.234375 -13.90625 C 4.265625 -14.5625 3.492188 -15.472656 2.921875 -16.640625 C 2.410156 -17.671875 2.15625 -18.765625 2.15625 -19.921875 C 2.15625 -21.222656 2.457031 -22.484375 3.0625 -23.703125 C 3.675781 -24.929688 4.515625 -25.960938 5.578125 -26.796875 C 6.578125 -27.585938 7.695312 -28.191406 8.9375 -28.609375 C 10.1875 -29.035156 11.503906 -29.25 12.890625 -29.25 C 14.273438 -29.25 15.597656 -29.039062 16.859375 -28.625 C 18.117188 -28.21875 19.25 -27.625 20.25 -26.84375 C 21.226562 -26.113281 22.003906 -25.257812 22.578125 -24.28125 L 17.9375 -21.109375 C 17.363281 -21.890625 16.648438 -22.519531 15.796875 -23 C 14.941406 -23.476562 13.988281 -23.71875 12.9375 -23.71875 C 11.46875 -23.71875 10.332031 -23.390625 9.53125 -22.734375 C 8.738281 -22.085938 8.34375 -21.234375 8.34375 -20.171875 C 8.34375 -19.679688 8.566406 -19.242188 9.015625 -18.859375 C 9.460938 -18.484375 10.039062 -18.144531 10.75 -17.84375 C 11.46875 -17.550781 12.273438 -17.289062 13.171875 -17.0625 C 14.066406 -16.832031 14.953125 -16.601562 15.828125 -16.375 C 16.710938 -16.144531 17.546875 -15.90625 18.328125 -15.65625 C 19.117188 -15.414062 19.757812 -15.144531 20.25 -14.84375 Z M 20.25 -14.84375 "/></g></g></g><g fill="#000000" fill-opacity="1"><g transform="translate(116.277726, 181.544094)"><g><path d="M 13.5 -20.75 C 14.9375 -20.75 16.265625 -20.46875 17.484375 -19.90625 C 18.703125 -19.351562 19.753906 -18.59375 20.640625 -17.625 C 21.523438 -16.664062 22.21875 -15.539062 22.71875 -14.25 C 23.21875 -12.96875 23.46875 -11.59375 23.46875 -10.125 C 23.46875 -8.664062 23.21875 -7.289062 22.71875 -6 C 22.21875 -4.707031 21.523438 -3.578125 20.640625 -2.609375 C 19.753906 -1.648438 18.703125 -0.894531 17.484375 -0.34375 C 16.265625 0.207031 14.9375 0.484375 13.5 0.484375 C 12.332031 0.484375 11.191406 0.273438 10.078125 -0.140625 C 8.972656 -0.554688 8.109375 -1.09375 7.484375 -1.75 L 7.484375 8.046875 L 1.875 8.046875 L 1.875 -20.171875 L 6.671875 -20.171875 L 7.484375 -18.796875 C 8.265625 -19.492188 9.144531 -19.992188 10.125 -20.296875 C 11.101562 -20.597656 12.226562 -20.75 13.5 -20.75 Z M 12.765625 -4.515625 C 13.503906 -4.515625 14.191406 -4.660156 14.828125 -4.953125 C 15.460938 -5.253906 16.015625 -5.65625 16.484375 -6.15625 C 16.960938 -6.664062 17.34375 -7.257812 17.625 -7.9375 C 17.914062 -8.613281 18.0625 -9.34375 18.0625 -10.125 C 18.0625 -10.882812 17.914062 -11.609375 17.625 -12.296875 C 17.34375 -12.992188 16.960938 -13.59375 16.484375 -14.09375 C 16.015625 -14.59375 15.460938 -14.988281 14.828125 -15.28125 C 14.191406 -15.582031 13.503906 -15.734375 12.765625 -15.734375 C 12.035156 -15.734375 11.351562 -15.628906 10.71875 -15.421875 C 10.082031 -15.222656 9.523438 -14.898438 9.046875 -14.453125 C 8.578125 -14.003906 8.207031 -13.421875 7.9375 -12.703125 C 7.664062 -11.984375 7.53125 -11.125 7.53125 -10.125 C 7.53125 -9.175781 7.664062 -8.351562 7.9375 -7.65625 C 8.207031 -6.96875 8.578125 -6.382812 9.046875 -5.90625 C 9.523438 -5.4375 10.082031 -5.085938 10.71875 -4.859375 C 11.351562 -4.628906 12.035156 -4.515625 12.765625 -4.515625 Z M 12.765625 -4.515625 "/></g></g></g><g fill="#000000" fill-opacity="1"><g transform="translate(140.516684, 181.544094)"><g><path d="M 11.796875 -20.75 C 13.316406 -20.75 14.695312 -20.441406 15.9375 -19.828125 C 17.1875 -19.210938 18.257812 -18.410156 19.15625 -17.421875 C 20.050781 -16.429688 20.742188 -15.289062 21.234375 -14 C 21.722656 -12.71875 21.96875 -11.398438 21.96875 -10.046875 C 21.96875 -9.234375 21.859375 -8.363281 21.640625 -7.4375 L 7.234375 -7.4375 C 7.773438 -6.519531 8.546875 -5.742188 9.546875 -5.109375 C 10.554688 -4.472656 11.644531 -4.15625 12.8125 -4.15625 C 13.976562 -4.15625 15 -4.25 15.875 -4.4375 C 16.757812 -4.625 17.597656 -4.867188 18.390625 -5.171875 L 20.25 -1.703125 C 19.25 -1.003906 18.101562 -0.460938 16.8125 -0.078125 C 15.53125 0.296875 14.15625 0.484375 12.6875 0.484375 C 11.09375 0.484375 9.601562 0.207031 8.21875 -0.34375 C 6.832031 -0.894531 5.625 -1.644531 4.59375 -2.59375 C 3.5625 -3.550781 2.75 -4.679688 2.15625 -5.984375 C 1.5625 -7.285156 1.265625 -8.664062 1.265625 -10.125 C 1.265625 -11.5625 1.535156 -12.921875 2.078125 -14.203125 C 2.617188 -15.492188 3.367188 -16.617188 4.328125 -17.578125 C 5.296875 -18.546875 6.414062 -19.316406 7.6875 -19.890625 C 8.957031 -20.460938 10.328125 -20.75 11.796875 -20.75 Z M 16.390625 -11.796875 C 16.066406 -12.960938 15.484375 -13.910156 14.640625 -14.640625 C 13.796875 -15.367188 12.847656 -15.734375 11.796875 -15.734375 C 10.710938 -15.734375 9.726562 -15.367188 8.84375 -14.640625 C 7.96875 -13.910156 7.363281 -12.960938 7.03125 -11.796875 Z M 16.390625 -11.796875 "/></g></g></g><g fill="#000000" fill-opacity="1"><g transform="translate(164.918307, 181.544094)"><g><path d="M 11.75 -15.734375 C 11.070312 -15.734375 10.4375 -15.578125 9.84375 -15.265625 C 9.25 -14.953125 8.726562 -14.53125 8.28125 -14 C 7.832031 -13.476562 7.476562 -12.863281 7.21875 -12.15625 C 6.957031 -11.457031 6.828125 -10.703125 6.828125 -9.890625 C 6.828125 -9.066406 6.957031 -8.320312 7.21875 -7.65625 C 7.476562 -7 7.832031 -6.429688 8.28125 -5.953125 C 8.726562 -5.484375 9.25 -5.113281 9.84375 -4.84375 C 10.4375 -4.570312 11.070312 -4.4375 11.75 -4.4375 C 12.59375 -4.4375 13.414062 -4.628906 14.21875 -5.015625 C 15.019531 -5.410156 15.703125 -5.960938 16.265625 -6.671875 L 19.71875 -3.25 C 18.769531 -2.113281 17.601562 -1.207031 16.21875 -0.53125 C 14.84375 0.144531 13.351562 0.484375 11.75 0.484375 C 10.289062 0.484375 8.921875 0.207031 7.640625 -0.34375 C 6.367188 -0.894531 5.257812 -1.648438 4.3125 -2.609375 C 3.363281 -3.578125 2.609375 -4.707031 2.046875 -6 C 1.492188 -7.289062 1.21875 -8.664062 1.21875 -10.125 C 1.21875 -11.59375 1.492188 -12.96875 2.046875 -14.25 C 2.609375 -15.539062 3.363281 -16.664062 4.3125 -17.625 C 5.257812 -18.59375 6.367188 -19.351562 7.640625 -19.90625 C 8.921875 -20.46875 10.289062 -20.75 11.75 -20.75 C 13.40625 -20.75 14.9375 -20.394531 16.34375 -19.6875 C 17.757812 -18.976562 18.953125 -18.015625 19.921875 -16.796875 L 16.03125 -13.78125 C 15.238281 -14.519531 14.523438 -15.03125 13.890625 -15.3125 C 13.253906 -15.59375 12.539062 -15.734375 11.75 -15.734375 Z M 11.75 -15.734375 "/></g></g></g><g fill="#000000" fill-opacity="1"><g transform="translate(186.066399, 181.544094)"><g><path d="M 13.015625 -11.796875 L 21.515625 0 L 14.796875 0 L 9.46875 -8.046875 L 7.484375 -5.890625 L 7.484375 0 L 1.875 0 L 1.875 -29.6875 L 7.484375 -29.6875 L 7.484375 -13.21875 L 14.03125 -20.171875 L 20.859375 -20.171875 Z M 13.015625 -11.796875 "/></g></g></g><g fill="#000000" fill-opacity="1"><g transform="translate(208.06855, 181.544094)"><g><path d="M 21.265625 -28.84375 L 27.453125 -28.84375 L 27.453125 0 L 21.265625 0 L 21.265625 -12.40625 L 8.046875 -12.40625 L 8.046875 0 L 1.90625 0 L 1.90625 -28.84375 L 8.046875 -28.84375 L 8.046875 -18.015625 L 21.265625 -18.015625 Z M 21.265625 -28.84375 "/></g></g></g><g fill="#000000" fill-opacity="1"><g transform="translate(237.635191, 181.544094)"><g><path d="M 14.59375 -20.171875 L 20.21875 -20.171875 L 20.21875 0 L 15.421875 0 L 14.59375 -1.546875 C 13.945312 -1.085938 13.207031 -0.710938 12.375 -0.421875 C 11.550781 -0.140625 10.664062 0 9.71875 0 C 8.988281 0 8.15625 -0.109375 7.21875 -0.328125 C 6.28125 -0.546875 5.40625 -0.953125 4.59375 -1.546875 C 3.78125 -2.140625 3.09375 -2.960938 2.53125 -4.015625 C 1.976562 -5.078125 1.703125 -6.453125 1.703125 -8.140625 L 1.703125 -20.171875 L 7.359375 -20.171875 L 7.359375 -8.34375 C 7.359375 -7.71875 7.457031 -7.1875 7.65625 -6.75 C 7.863281 -6.3125 8.132812 -5.960938 8.46875 -5.703125 C 8.8125 -5.453125 9.203125 -5.265625 9.640625 -5.140625 C 10.078125 -5.023438 10.523438 -4.96875 10.984375 -4.96875 C 11.335938 -4.96875 11.722656 -5.023438 12.140625 -5.140625 C 12.554688 -5.265625 12.945312 -5.460938 13.3125 -5.734375 C 13.6875 -6.003906 13.992188 -6.351562 14.234375 -6.78125 C 14.472656 -7.21875 14.59375 -7.738281 14.59375 -8.34375 Z M 14.59375 -20.171875 "/></g></g></g><g fill="#000000" fill-opacity="1"><g transform="translate(259.922019, 181.544094)"><g><path d="M 13.5 -20.75 C 14.914062 -20.75 16.234375 -20.46875 17.453125 -19.90625 C 18.671875 -19.351562 19.726562 -18.59375 20.625 -17.625 C 21.519531 -16.664062 22.21875 -15.539062 22.71875 -14.25 C 23.21875 -12.96875 23.46875 -11.59375 23.46875 -10.125 C 23.46875 -8.664062 23.21875 -7.289062 22.71875 -6 C 22.21875 -4.707031 21.519531 -3.578125 20.625 -2.609375 C 19.726562 -1.648438 18.671875 -0.894531 17.453125 -0.34375 C 16.234375 0.207031 14.914062 0.484375 13.5 0.484375 C 12.3125 0.484375 11.164062 0.273438 10.0625 -0.140625 C 8.96875 -0.554688 8.109375 -1.09375 7.484375 -1.75 L 6.671875 0 L 1.875 0 L 1.875 -29.6875 L 7.484375 -29.6875 L 7.484375 -18.546875 C 9.023438 -20.015625 11.03125 -20.75 13.5 -20.75 Z M 12.734375 -4.515625 C 13.460938 -4.515625 14.144531 -4.660156 14.78125 -4.953125 C 15.414062 -5.253906 15.976562 -5.65625 16.46875 -6.15625 C 16.957031 -6.664062 17.335938 -7.257812 17.609375 -7.9375 C 17.878906 -8.613281 18.015625 -9.34375 18.015625 -10.125 C 18.015625 -10.882812 17.878906 -11.609375 17.609375 -12.296875 C 17.335938 -12.992188 16.957031 -13.59375 16.46875 -14.09375 C 15.976562 -14.59375 15.414062 -14.988281 14.78125 -15.28125 C 14.144531 -15.582031 13.460938 -15.734375 12.734375 -15.734375 C 11.992188 -15.734375 11.304688 -15.628906 10.671875 -15.421875 C 10.035156 -15.222656 9.476562 -14.898438 9 -14.453125 C 8.53125 -14.003906 8.160156 -13.421875 7.890625 -12.703125 C 7.617188 -11.984375 7.484375 -11.097656 7.484375 -10.046875 C 7.484375 -9.097656 7.617188 -8.273438 7.890625 -7.578125 C 8.160156 -6.890625 8.53125 -6.320312 9 -5.875 C 9.476562 -5.425781 10.035156 -5.085938 10.671875 -4.859375 C 11.304688 -4.628906 11.992188 -4.515625 12.734375 -4.515625 Z M 12.734375 -4.515625 "/></g></g></g><g fill="#000000" fill-opacity="1"><g transform="translate(29.817663, 207.345835)"><g><path d="M 6.09375 -9.8125 C 4.914062 -9.8125 3.984375 -9.414062 3.296875 -8.625 C 2.609375 -7.84375 2.265625 -6.765625 2.265625 -5.390625 C 2.265625 -3.984375 2.59375 -2.894531 3.25 -2.125 C 3.914062 -1.351562 4.863281 -0.96875 6.09375 -0.96875 C 6.84375 -0.96875 7.695312 -1.101562 8.65625 -1.375 L 8.65625 -0.265625 C 7.914062 0.00390625 6.992188 0.140625 5.890625 0.140625 C 4.304688 0.140625 3.082031 -0.335938 2.21875 -1.296875 C 1.351562 -2.265625 0.921875 -3.632812 0.921875 -5.40625 C 0.921875 -6.519531 1.128906 -7.492188 1.546875 -8.328125 C 1.960938 -9.160156 2.5625 -9.800781 3.34375 -10.25 C 4.125 -10.707031 5.046875 -10.9375 6.109375 -10.9375 C 7.242188 -10.9375 8.234375 -10.734375 9.078125 -10.328125 L 8.546875 -9.25 C 7.734375 -9.625 6.914062 -9.8125 6.09375 -9.8125 Z M 6.09375 -9.8125 "/></g></g></g><g fill="#000000" fill-opacity="1"><g transform="translate(41.492084, 207.345835)"><g><path d="M 8.28125 -4.046875 C 8.28125 -2.734375 7.945312 -1.707031 7.28125 -0.96875 C 6.613281 -0.226562 5.695312 0.140625 4.53125 0.140625 C 3.8125 0.140625 3.171875 -0.0234375 2.609375 -0.359375 C 2.046875 -0.703125 1.609375 -1.191406 1.296875 -1.828125 C 0.992188 -2.460938 0.84375 -3.203125 0.84375 -4.046875 C 0.84375 -5.367188 1.171875 -6.394531 1.828125 -7.125 C 2.492188 -7.863281 3.410156 -8.234375 4.578125 -8.234375 C 5.710938 -8.234375 6.613281 -7.851562 7.28125 -7.09375 C 7.945312 -6.34375 8.28125 -5.328125 8.28125 -4.046875 Z M 2.125 -4.046875 C 2.125 -3.015625 2.328125 -2.226562 2.734375 -1.6875 C 3.148438 -1.144531 3.757812 -0.875 4.5625 -0.875 C 5.363281 -0.875 5.972656 -1.144531 6.390625 -1.6875 C 6.804688 -2.226562 7.015625 -3.015625 7.015625 -4.046875 C 7.015625 -5.078125 6.804688 -5.859375 6.390625 -6.390625 C 5.972656 -6.921875 5.359375 -7.1875 4.546875 -7.1875 C 3.742188 -7.1875 3.140625 -6.921875 2.734375 -6.390625 C 2.328125 -5.867188 2.125 -5.085938 2.125 -4.046875 Z M 2.125 -4.046875 "/></g></g></g><g fill="#000000" fill-opacity="1"><g transform="translate(52.76087, 207.345835)"><g><path d="M 6.828125 0 L 6.828125 -5.234375 C 6.828125 -5.890625 6.675781 -6.378906 6.375 -6.703125 C 6.082031 -7.023438 5.613281 -7.1875 4.96875 -7.1875 C 4.125 -7.1875 3.503906 -6.957031 3.109375 -6.5 C 2.710938 -6.050781 2.515625 -5.296875 2.515625 -4.234375 L 2.515625 0 L 1.296875 0 L 1.296875 -8.078125 L 2.296875 -8.078125 L 2.5 -6.984375 L 2.546875 -6.984375 C 2.796875 -7.378906 3.144531 -7.6875 3.59375 -7.90625 C 4.050781 -8.125 4.5625 -8.234375 5.125 -8.234375 C 6.09375 -8.234375 6.820312 -8 7.3125 -7.53125 C 7.8125 -7.0625 8.0625 -6.3125 8.0625 -5.28125 L 8.0625 0 Z M 6.828125 0 "/></g></g></g><g fill="#000000" fill-opacity="1"><g transform="translate(64.177162, 207.345835)"><g><path d="M 4.71875 0.140625 C 3.519531 0.140625 2.570312 -0.21875 1.875 -0.9375 C 1.1875 -1.664062 0.84375 -2.675781 0.84375 -3.96875 C 0.84375 -5.28125 1.164062 -6.316406 1.8125 -7.078125 C 2.457031 -7.847656 3.316406 -8.234375 4.390625 -8.234375 C 5.410156 -8.234375 6.210938 -7.898438 6.796875 -7.234375 C 7.390625 -6.566406 7.6875 -5.6875 7.6875 -4.59375 L 7.6875 -3.828125 L 2.125 -3.828125 C 2.144531 -2.867188 2.378906 -2.144531 2.828125 -1.65625 C 3.285156 -1.164062 3.929688 -0.921875 4.765625 -0.921875 C 5.628906 -0.921875 6.488281 -1.101562 7.34375 -1.46875 L 7.34375 -0.375 C 6.90625 -0.1875 6.492188 -0.0546875 6.109375 0.015625 C 5.722656 0.0976562 5.257812 0.140625 4.71875 0.140625 Z M 4.375 -7.203125 C 3.726562 -7.203125 3.210938 -6.988281 2.828125 -6.5625 C 2.441406 -6.144531 2.210938 -5.5625 2.140625 -4.8125 L 6.375 -4.8125 C 6.375 -5.582031 6.203125 -6.171875 5.859375 -6.578125 C 5.515625 -6.992188 5.019531 -7.203125 4.375 -7.203125 Z M 4.375 -7.203125 "/></g></g></g><g fill="#000000" fill-opacity="1"><g transform="translate(74.796923, 207.345835)"><g><path d="M 4.53125 0.140625 C 3.363281 0.140625 2.457031 -0.21875 1.8125 -0.9375 C 1.164062 -1.65625 0.84375 -2.671875 0.84375 -3.984375 C 0.84375 -5.335938 1.164062 -6.382812 1.8125 -7.125 C 2.46875 -7.863281 3.398438 -8.234375 4.609375 -8.234375 C 4.992188 -8.234375 5.378906 -8.191406 5.765625 -8.109375 C 6.160156 -8.023438 6.46875 -7.925781 6.6875 -7.8125 L 6.3125 -6.765625 C 6.039062 -6.878906 5.742188 -6.972656 5.421875 -7.046875 C 5.109375 -7.117188 4.828125 -7.15625 4.578125 -7.15625 C 2.941406 -7.15625 2.125 -6.101562 2.125 -4 C 2.125 -3.007812 2.320312 -2.25 2.71875 -1.71875 C 3.113281 -1.1875 3.707031 -0.921875 4.5 -0.921875 C 5.175781 -0.921875 5.867188 -1.066406 6.578125 -1.359375 L 6.578125 -0.265625 C 6.035156 0.00390625 5.351562 0.140625 4.53125 0.140625 Z M 4.53125 0.140625 "/></g></g></g><g fill="#000000" fill-opacity="1"><g transform="translate(84.133381, 207.345835)"><g><path d="M 3.90625 -0.859375 C 4.125 -0.859375 4.332031 -0.875 4.53125 -0.90625 C 4.738281 -0.9375 4.898438 -0.972656 5.015625 -1.015625 L 5.015625 -0.078125 C 4.878906 -0.015625 4.679688 0.0351562 4.421875 0.078125 C 4.171875 0.117188 3.941406 0.140625 3.734375 0.140625 C 2.171875 0.140625 1.390625 -0.679688 1.390625 -2.328125 L 1.390625 -7.140625 L 0.234375 -7.140625 L 0.234375 -7.71875 L 1.390625 -8.234375 L 1.90625 -9.953125 L 2.609375 -9.953125 L 2.609375 -8.078125 L 4.953125 -8.078125 L 4.953125 -7.140625 L 2.609375 -7.140625 L 2.609375 -2.375 C 2.609375 -1.882812 2.722656 -1.507812 2.953125 -1.25 C 3.191406 -0.988281 3.507812 -0.859375 3.90625 -0.859375 Z M 3.90625 -0.859375 "/></g></g></g><g fill="#000000" fill-opacity="1"><g transform="translate(91.611261, 207.345835)"><g><path d="M 6.265625 0 L 6.03125 -1.15625 L 5.96875 -1.15625 C 5.5625 -0.644531 5.15625 -0.300781 4.75 -0.125 C 4.351562 0.0507812 3.859375 0.140625 3.265625 0.140625 C 2.460938 0.140625 1.832031 -0.0625 1.375 -0.46875 C 0.914062 -0.882812 0.6875 -1.472656 0.6875 -2.234375 C 0.6875 -3.867188 1.992188 -4.722656 4.609375 -4.796875 L 5.984375 -4.84375 L 5.984375 -5.34375 C 5.984375 -5.976562 5.847656 -6.445312 5.578125 -6.75 C 5.304688 -7.050781 4.867188 -7.203125 4.265625 -7.203125 C 3.585938 -7.203125 2.828125 -7 1.984375 -6.59375 L 1.59375 -7.53125 C 2 -7.738281 2.4375 -7.90625 2.90625 -8.03125 C 3.382812 -8.15625 3.863281 -8.21875 4.34375 -8.21875 C 5.300781 -8.21875 6.007812 -8.003906 6.46875 -7.578125 C 6.9375 -7.148438 7.171875 -6.460938 7.171875 -5.515625 L 7.171875 0 Z M 3.5 -0.859375 C 4.257812 -0.859375 4.859375 -1.066406 5.296875 -1.484375 C 5.734375 -1.910156 5.953125 -2.5 5.953125 -3.25 L 5.953125 -3.96875 L 4.734375 -3.921875 C 3.753906 -3.890625 3.050781 -3.738281 2.625 -3.46875 C 2.195312 -3.195312 1.984375 -2.78125 1.984375 -2.21875 C 1.984375 -1.78125 2.113281 -1.441406 2.375 -1.203125 C 2.644531 -0.972656 3.019531 -0.859375 3.5 -0.859375 Z M 3.5 -0.859375 "/></g></g></g><g fill="#000000" fill-opacity="1"><g transform="translate(102.157269, 207.345835)"><g><path d="M 6.828125 0 L 6.828125 -5.234375 C 6.828125 -5.890625 6.675781 -6.378906 6.375 -6.703125 C 6.082031 -7.023438 5.613281 -7.1875 4.96875 -7.1875 C 4.125 -7.1875 3.503906 -6.957031 3.109375 -6.5 C 2.710938 -6.050781 2.515625 -5.296875 2.515625 -4.234375 L 2.515625 0 L 1.296875 0 L 1.296875 -8.078125 L 2.296875 -8.078125 L 2.5 -6.984375 L 2.546875 -6.984375 C 2.796875 -7.378906 3.144531 -7.6875 3.59375 -7.90625 C 4.050781 -8.125 4.5625 -8.234375 5.125 -8.234375 C 6.09375 -8.234375 6.820312 -8 7.3125 -7.53125 C 7.8125 -7.0625 8.0625 -6.3125 8.0625 -5.28125 L 8.0625 0 Z M 6.828125 0 "/></g></g></g><g fill="#000000" fill-opacity="1"><g transform="translate(113.573562, 207.345835)"><g><path d="M 6.796875 -1.078125 L 6.734375 -1.078125 C 6.171875 -0.265625 5.328125 0.140625 4.203125 0.140625 C 3.140625 0.140625 2.3125 -0.21875 1.71875 -0.9375 C 1.132812 -1.65625 0.84375 -2.679688 0.84375 -4.015625 C 0.84375 -5.347656 1.140625 -6.382812 1.734375 -7.125 C 2.328125 -7.863281 3.148438 -8.234375 4.203125 -8.234375 C 5.296875 -8.234375 6.132812 -7.832031 6.71875 -7.03125 L 6.8125 -7.03125 L 6.765625 -7.625 L 6.734375 -8.1875 L 6.734375 -11.484375 L 7.953125 -11.484375 L 7.953125 0 L 6.96875 0 Z M 4.359375 -0.875 C 5.191406 -0.875 5.796875 -1.101562 6.171875 -1.5625 C 6.546875 -2.019531 6.734375 -2.753906 6.734375 -3.765625 L 6.734375 -4.015625 C 6.734375 -5.160156 6.539062 -5.976562 6.15625 -6.46875 C 5.78125 -6.957031 5.175781 -7.203125 4.34375 -7.203125 C 3.625 -7.203125 3.070312 -6.921875 2.6875 -6.359375 C 2.3125 -5.804688 2.125 -5.019531 2.125 -4 C 2.125 -2.96875 2.3125 -2.1875 2.6875 -1.65625 C 3.0625 -1.132812 3.617188 -0.875 4.359375 -0.875 Z M 4.359375 -0.875 "/></g></g></g><g fill="#000000" fill-opacity="1"><g transform="translate(124.975105, 207.345835)"><g><path d="M 8.28125 -4.046875 C 8.28125 -2.734375 7.945312 -1.707031 7.28125 -0.96875 C 6.613281 -0.226562 5.695312 0.140625 4.53125 0.140625 C 3.8125 0.140625 3.171875 -0.0234375 2.609375 -0.359375 C 2.046875 -0.703125 1.609375 -1.191406 1.296875 -1.828125 C 0.992188 -2.460938 0.84375 -3.203125 0.84375 -4.046875 C 0.84375 -5.367188 1.171875 -6.394531 1.828125 -7.125 C 2.492188 -7.863281 3.410156 -8.234375 4.578125 -8.234375 C 5.710938 -8.234375 6.613281 -7.851562 7.28125 -7.09375 C 7.945312 -6.34375 8.28125 -5.328125 8.28125 -4.046875 Z M 2.125 -4.046875 C 2.125 -3.015625 2.328125 -2.226562 2.734375 -1.6875 C 3.148438 -1.144531 3.757812 -0.875 4.5625 -0.875 C 5.363281 -0.875 5.972656 -1.144531 6.390625 -1.6875 C 6.804688 -2.226562 7.015625 -3.015625 7.015625 -4.046875 C 7.015625 -5.078125 6.804688 -5.859375 6.390625 -6.390625 C 5.972656 -6.921875 5.359375 -7.1875 4.546875 -7.1875 C 3.742188 -7.1875 3.140625 -6.921875 2.734375 -6.390625 C 2.328125 -5.867188 2.125 -5.085938 2.125 -4.046875 Z M 2.125 -4.046875 "/></g></g></g><g fill="#000000" fill-opacity="1"><g transform="translate(136.243892, 207.345835)"><g/></g></g><g fill="#000000" fill-opacity="1"><g transform="translate(142.313086, 207.345835)"><g><path d="M 7.640625 -10.78125 L 9 -10.78125 L 5.109375 0 L 3.859375 0 L 0 -10.78125 L 1.328125 -10.78125 L 3.8125 -3.8125 C 4.09375 -3.007812 4.316406 -2.226562 4.484375 -1.46875 C 4.660156 -2.257812 4.890625 -3.050781 5.171875 -3.84375 Z M 7.640625 -10.78125 "/></g></g></g><g fill="#000000" fill-opacity="1"><g transform="translate(153.449111, 207.345835)"><g><path d="M 8.28125 -4.046875 C 8.28125 -2.734375 7.945312 -1.707031 7.28125 -0.96875 C 6.613281 -0.226562 5.695312 0.140625 4.53125 0.140625 C 3.8125 0.140625 3.171875 -0.0234375 2.609375 -0.359375 C 2.046875 -0.703125 1.609375 -1.191406 1.296875 -1.828125 C 0.992188 -2.460938 0.84375 -3.203125 0.84375 -4.046875 C 0.84375 -5.367188 1.171875 -6.394531 1.828125 -7.125 C 2.492188 -7.863281 3.410156 -8.234375 4.578125 -8.234375 C 5.710938 -8.234375 6.613281 -7.851562 7.28125 -7.09375 C 7.945312 -6.34375 8.28125 -5.328125 8.28125 -4.046875 Z M 2.125 -4.046875 C 2.125 -3.015625 2.328125 -2.226562 2.734375 -1.6875 C 3.148438 -1.144531 3.757812 -0.875 4.5625 -0.875 C 5.363281 -0.875 5.972656 -1.144531 6.390625 -1.6875 C 6.804688 -2.226562 7.015625 -3.015625 7.015625 -4.046875 C 7.015625 -5.078125 6.804688 -5.859375 6.390625 -6.390625 C 5.972656 -6.921875 5.359375 -7.1875 4.546875 -7.1875 C 3.742188 -7.1875 3.140625 -6.921875 2.734375 -6.390625 C 2.328125 -5.867188 2.125 -5.085938 2.125 -4.046875 Z M 2.125 -4.046875 "/></g></g></g><g fill="#000000" fill-opacity="1"><g transform="translate(164.717892, 207.345835)"><g><path d="M 4.53125 0.140625 C 3.363281 0.140625 2.457031 -0.21875 1.8125 -0.9375 C 1.164062 -1.65625 0.84375 -2.671875 0.84375 -3.984375 C 0.84375 -5.335938 1.164062 -6.382812 1.8125 -7.125 C 2.46875 -7.863281 3.398438 -8.234375 4.609375 -8.234375 C 4.992188 -8.234375 5.378906 -8.191406 5.765625 -8.109375 C 6.160156 -8.023438 6.46875 -7.925781 6.6875 -7.8125 L 6.3125 -6.765625 C 6.039062 -6.878906 5.742188 -6.972656 5.421875 -7.046875 C 5.109375 -7.117188 4.828125 -7.15625 4.578125 -7.15625 C 2.941406 -7.15625 2.125 -6.101562 2.125 -4 C 2.125 -3.007812 2.320312 -2.25 2.71875 -1.71875 C 3.113281 -1.1875 3.707031 -0.921875 4.5 -0.921875 C 5.175781 -0.921875 5.867188 -1.066406 6.578125 -1.359375 L 6.578125 -0.265625 C 6.035156 0.00390625 5.351562 0.140625 4.53125 0.140625 Z M 4.53125 0.140625 "/></g></g></g><g fill="#000000" fill-opacity="1"><g transform="translate(174.054343, 207.345835)"><g><path d="M 4.71875 0.140625 C 3.519531 0.140625 2.570312 -0.21875 1.875 -0.9375 C 1.1875 -1.664062 0.84375 -2.675781 0.84375 -3.96875 C 0.84375 -5.28125 1.164062 -6.316406 1.8125 -7.078125 C 2.457031 -7.847656 3.316406 -8.234375 4.390625 -8.234375 C 5.410156 -8.234375 6.210938 -7.898438 6.796875 -7.234375 C 7.390625 -6.566406 7.6875 -5.6875 7.6875 -4.59375 L 7.6875 -3.828125 L 2.125 -3.828125 C 2.144531 -2.867188 2.378906 -2.144531 2.828125 -1.65625 C 3.285156 -1.164062 3.929688 -0.921875 4.765625 -0.921875 C 5.628906 -0.921875 6.488281 -1.101562 7.34375 -1.46875 L 7.34375 -0.375 C 6.90625 -0.1875 6.492188 -0.0546875 6.109375 0.015625 C 5.722656 0.0976562 5.257812 0.140625 4.71875 0.140625 Z M 4.375 -7.203125 C 3.726562 -7.203125 3.210938 -6.988281 2.828125 -6.5625 C 2.441406 -6.144531 2.210938 -5.5625 2.140625 -4.8125 L 6.375 -4.8125 C 6.375 -5.582031 6.203125 -6.171875 5.859375 -6.578125 C 5.515625 -6.992188 5.019531 -7.203125 4.375 -7.203125 Z M 1.921875 -9.328125 C 2.546875 -9.992188 2.984375 -10.484375 3.234375 -10.796875 C 3.484375 -11.109375 3.664062 -11.367188 3.78125 -11.578125 L 5 -11.578125 C 5.101562 -11.367188 5.289062 -11.097656 5.5625 -10.765625 C 5.832031 -10.441406 6.273438 -9.960938 6.890625 -9.328125 L 6.890625 -9.15625 L 6.015625 -9.15625 C 5.578125 -9.425781 5.03125 -9.882812 4.375 -10.53125 C 3.707031 -9.875 3.171875 -9.414062 2.765625 -9.15625 L 1.921875 -9.15625 Z M 1.921875 -9.328125 "/></g></g></g><g fill="#000000" fill-opacity="1"><g transform="translate(184.674098, 207.345835)"><g/></g></g><g fill="#000000" fill-opacity="1"><g transform="translate(190.743285, 207.345835)"><g><path d="M 6.265625 0 L 6.03125 -1.15625 L 5.96875 -1.15625 C 5.5625 -0.644531 5.15625 -0.300781 4.75 -0.125 C 4.351562 0.0507812 3.859375 0.140625 3.265625 0.140625 C 2.460938 0.140625 1.832031 -0.0625 1.375 -0.46875 C 0.914062 -0.882812 0.6875 -1.472656 0.6875 -2.234375 C 0.6875 -3.867188 1.992188 -4.722656 4.609375 -4.796875 L 5.984375 -4.84375 L 5.984375 -5.34375 C 5.984375 -5.976562 5.847656 -6.445312 5.578125 -6.75 C 5.304688 -7.050781 4.867188 -7.203125 4.265625 -7.203125 C 3.585938 -7.203125 2.828125 -7 1.984375 -6.59375 L 1.59375 -7.53125 C 2 -7.738281 2.4375 -7.90625 2.90625 -8.03125 C 3.382812 -8.15625 3.863281 -8.21875 4.34375 -8.21875 C 5.300781 -8.21875 6.007812 -8.003906 6.46875 -7.578125 C 6.9375 -7.148438 7.171875 -6.460938 7.171875 -5.515625 L 7.171875 0 Z M 3.5 -0.859375 C 4.257812 -0.859375 4.859375 -1.066406 5.296875 -1.484375 C 5.734375 -1.910156 5.953125 -2.5 5.953125 -3.25 L 5.953125 -3.96875 L 4.734375 -3.921875 C 3.753906 -3.890625 3.050781 -3.738281 2.625 -3.46875 C 2.195312 -3.195312 1.984375 -2.78125 1.984375 -2.21875 C 1.984375 -1.78125 2.113281 -1.441406 2.375 -1.203125 C 2.644531 -0.972656 3.019531 -0.859375 3.5 -0.859375 Z M 3.5 -0.859375 "/></g></g></g><g fill="#000000" fill-opacity="1"><g transform="translate(201.289286, 207.345835)"><g><path d="M 8.28125 -4.046875 C 8.28125 -2.734375 7.945312 -1.707031 7.28125 -0.96875 C 6.613281 -0.226562 5.695312 0.140625 4.53125 0.140625 C 3.8125 0.140625 3.171875 -0.0234375 2.609375 -0.359375 C 2.046875 -0.703125 1.609375 -1.191406 1.296875 -1.828125 C 0.992188 -2.460938 0.84375 -3.203125 0.84375 -4.046875 C 0.84375 -5.367188 1.171875 -6.394531 1.828125 -7.125 C 2.492188 -7.863281 3.410156 -8.234375 4.578125 -8.234375 C 5.710938 -8.234375 6.613281 -7.851562 7.28125 -7.09375 C 7.945312 -6.34375 8.28125 -5.328125 8.28125 -4.046875 Z M 2.125 -4.046875 C 2.125 -3.015625 2.328125 -2.226562 2.734375 -1.6875 C 3.148438 -1.144531 3.757812 -0.875 4.5625 -0.875 C 5.363281 -0.875 5.972656 -1.144531 6.390625 -1.6875 C 6.804688 -2.226562 7.015625 -3.015625 7.015625 -4.046875 C 7.015625 -5.078125 6.804688 -5.859375 6.390625 -6.390625 C 5.972656 -6.921875 5.359375 -7.1875 4.546875 -7.1875 C 3.742188 -7.1875 3.140625 -6.921875 2.734375 -6.390625 C 2.328125 -5.867188 2.125 -5.085938 2.125 -4.046875 Z M 2.125 -4.046875 "/></g></g></g><g fill="#000000" fill-opacity="1"><g transform="translate(212.558067, 207.345835)"><g/></g></g><g fill="#000000" fill-opacity="1"><g transform="translate(218.627254, 207.345835)"><g><path d="M 6.09375 -9.8125 C 4.914062 -9.8125 3.984375 -9.414062 3.296875 -8.625 C 2.609375 -7.84375 2.265625 -6.765625 2.265625 -5.390625 C 2.265625 -3.984375 2.59375 -2.894531 3.25 -2.125 C 3.914062 -1.351562 4.863281 -0.96875 6.09375 -0.96875 C 6.84375 -0.96875 7.695312 -1.101562 8.65625 -1.375 L 8.65625 -0.265625 C 7.914062 0.00390625 6.992188 0.140625 5.890625 0.140625 C 4.304688 0.140625 3.082031 -0.335938 2.21875 -1.296875 C 1.351562 -2.265625 0.921875 -3.632812 0.921875 -5.40625 C 0.921875 -6.519531 1.128906 -7.492188 1.546875 -8.328125 C 1.960938 -9.160156 2.5625 -9.800781 3.34375 -10.25 C 4.125 -10.707031 5.046875 -10.9375 6.109375 -10.9375 C 7.242188 -10.9375 8.234375 -10.734375 9.078125 -10.328125 L 8.546875 -9.25 C 7.734375 -9.625 6.914062 -9.8125 6.09375 -9.8125 Z M 6.09375 -9.8125 "/></g></g></g><g fill="#000000" fill-opacity="1"><g transform="translate(230.301669, 207.345835)"><g><path d="M 8.28125 -4.046875 C 8.28125 -2.734375 7.945312 -1.707031 7.28125 -0.96875 C 6.613281 -0.226562 5.695312 0.140625 4.53125 0.140625 C 3.8125 0.140625 3.171875 -0.0234375 2.609375 -0.359375 C 2.046875 -0.703125 1.609375 -1.191406 1.296875 -1.828125 C 0.992188 -2.460938 0.84375 -3.203125 0.84375 -4.046875 C 0.84375 -5.367188 1.171875 -6.394531 1.828125 -7.125 C 2.492188 -7.863281 3.410156 -8.234375 4.578125 -8.234375 C 5.710938 -8.234375 6.613281 -7.851562 7.28125 -7.09375 C 7.945312 -6.34375 8.28125 -5.328125 8.28125 -4.046875 Z M 2.125 -4.046875 C 2.125 -3.015625 2.328125 -2.226562 2.734375 -1.6875 C 3.148438 -1.144531 3.757812 -0.875 4.5625 -0.875 C 5.363281 -0.875 5.972656 -1.144531 6.390625 -1.6875 C 6.804688 -2.226562 7.015625 -3.015625 7.015625 -4.046875 C 7.015625 -5.078125 6.804688 -5.859375 6.390625 -6.390625 C 5.972656 -6.921875 5.359375 -7.1875 4.546875 -7.1875 C 3.742188 -7.1875 3.140625 -6.921875 2.734375 -6.390625 C 2.328125 -5.867188 2.125 -5.085938 2.125 -4.046875 Z M 2.125 -4.046875 "/></g></g></g><g fill="#000000" fill-opacity="1"><g transform="translate(241.57045, 207.345835)"><g><path d="M 6.828125 0 L 6.828125 -5.234375 C 6.828125 -5.890625 6.675781 -6.378906 6.375 -6.703125 C 6.082031 -7.023438 5.613281 -7.1875 4.96875 -7.1875 C 4.125 -7.1875 3.503906 -6.957031 3.109375 -6.5 C 2.710938 -6.050781 2.515625 -5.296875 2.515625 -4.234375 L 2.515625 0 L 1.296875 0 L 1.296875 -8.078125 L 2.296875 -8.078125 L 2.5 -6.984375 L 2.546875 -6.984375 C 2.796875 -7.378906 3.144531 -7.6875 3.59375 -7.90625 C 4.050781 -8.125 4.5625 -8.234375 5.125 -8.234375 C 6.09375 -8.234375 6.820312 -8 7.3125 -7.53125 C 7.8125 -7.0625 8.0625 -6.3125 8.0625 -5.28125 L 8.0625 0 Z M 6.828125 0 "/></g></g></g><g fill="#000000" fill-opacity="1"><g transform="translate(252.98675, 207.345835)"><g><path d="M 6.828125 0 L 6.828125 -5.234375 C 6.828125 -5.890625 6.675781 -6.378906 6.375 -6.703125 C 6.082031 -7.023438 5.613281 -7.1875 4.96875 -7.1875 C 4.125 -7.1875 3.503906 -6.957031 3.109375 -6.5 C 2.710938 -6.039062 2.515625 -5.285156 2.515625 -4.234375 L 2.515625 0 L 1.296875 0 L 1.296875 -11.484375 L 2.515625 -11.484375 L 2.515625 -8 C 2.515625 -7.582031 2.5 -7.238281 2.46875 -6.96875 L 2.53125 -6.96875 C 2.78125 -7.351562 3.125 -7.65625 3.5625 -7.875 C 4.007812 -8.101562 4.519531 -8.21875 5.09375 -8.21875 C 6.082031 -8.21875 6.820312 -7.984375 7.3125 -7.515625 C 7.8125 -7.046875 8.0625 -6.300781 8.0625 -5.28125 L 8.0625 0 Z M 6.828125 0 "/></g></g></g><g fill="#000000" fill-opacity="1"><g transform="translate(264.40305, 207.345835)"><g><path d="M 4.71875 0.140625 C 3.519531 0.140625 2.570312 -0.21875 1.875 -0.9375 C 1.1875 -1.664062 0.84375 -2.675781 0.84375 -3.96875 C 0.84375 -5.28125 1.164062 -6.316406 1.8125 -7.078125 C 2.457031 -7.847656 3.316406 -8.234375 4.390625 -8.234375 C 5.410156 -8.234375 6.210938 -7.898438 6.796875 -7.234375 C 7.390625 -6.566406 7.6875 -5.6875 7.6875 -4.59375 L 7.6875 -3.828125 L 2.125 -3.828125 C 2.144531 -2.867188 2.378906 -2.144531 2.828125 -1.65625 C 3.285156 -1.164062 3.929688 -0.921875 4.765625 -0.921875 C 5.628906 -0.921875 6.488281 -1.101562 7.34375 -1.46875 L 7.34375 -0.375 C 6.90625 -0.1875 6.492188 -0.0546875 6.109375 0.015625 C 5.722656 0.0976562 5.257812 0.140625 4.71875 0.140625 Z M 4.375 -7.203125 C 3.726562 -7.203125 3.210938 -6.988281 2.828125 -6.5625 C 2.441406 -6.144531 2.210938 -5.5625 2.140625 -4.8125 L 6.375 -4.8125 C 6.375 -5.582031 6.203125 -6.171875 5.859375 -6.578125 C 5.515625 -6.992188 5.019531 -7.203125 4.375 -7.203125 Z M 4.375 -7.203125 "/></g></g></g><g fill="#000000" fill-opacity="1"><g transform="translate(275.022817, 207.345835)"><g><path d="M 4.53125 0.140625 C 3.363281 0.140625 2.457031 -0.21875 1.8125 -0.9375 C 1.164062 -1.65625 0.84375 -2.671875 0.84375 -3.984375 C 0.84375 -5.335938 1.164062 -6.382812 1.8125 -7.125 C 2.46875 -7.863281 3.398438 -8.234375 4.609375 -8.234375 C 4.992188 -8.234375 5.378906 -8.191406 5.765625 -8.109375 C 6.160156 -8.023438 6.46875 -7.925781 6.6875 -7.8125 L 6.3125 -6.765625 C 6.039062 -6.878906 5.742188 -6.972656 5.421875 -7.046875 C 5.109375 -7.117188 4.828125 -7.15625 4.578125 -7.15625 C 2.941406 -7.15625 2.125 -6.101562 2.125 -4 C 2.125 -3.007812 2.320312 -2.25 2.71875 -1.71875 C 3.113281 -1.1875 3.707031 -0.921875 4.5 -0.921875 C 5.175781 -0.921875 5.867188 -1.066406 6.578125 -1.359375 L 6.578125 -0.265625 C 6.035156 0.00390625 5.351562 0.140625 4.53125 0.140625 Z M 4.53125 0.140625 "/></g></g></g><g fill="#000000" fill-opacity="1"><g transform="translate(284.359269, 207.345835)"><g><path d="M 2.515625 0 L 1.296875 0 L 1.296875 -8.078125 L 2.515625 -8.078125 Z M 1.1875 -10.28125 C 1.1875 -10.5625 1.253906 -10.765625 1.390625 -10.890625 C 1.535156 -11.023438 1.710938 -11.09375 1.921875 -11.09375 C 2.117188 -11.09375 2.285156 -11.023438 2.421875 -10.890625 C 2.566406 -10.753906 2.640625 -10.550781 2.640625 -10.28125 C 2.640625 -10 2.566406 -9.789062 2.421875 -9.65625 C 2.285156 -9.519531 2.117188 -9.453125 1.921875 -9.453125 C 1.710938 -9.453125 1.535156 -9.519531 1.390625 -9.65625 C 1.253906 -9.789062 1.1875 -10 1.1875 -10.28125 Z M 1.1875 -10.28125 "/></g></g></g><g fill="#000000" fill-opacity="1"><g transform="translate(290.325215, 207.345835)"><g><path d="M 11.609375 0 L 11.609375 -5.265625 C 11.609375 -5.910156 11.46875 -6.390625 11.1875 -6.703125 C 10.914062 -7.023438 10.488281 -7.1875 9.90625 -7.1875 C 9.144531 -7.1875 8.582031 -6.96875 8.21875 -6.53125 C 7.851562 -6.09375 7.671875 -5.421875 7.671875 -4.515625 L 7.671875 0 L 6.453125 0 L 6.453125 -5.265625 C 6.453125 -5.910156 6.3125 -6.390625 6.03125 -6.703125 C 5.757812 -7.023438 5.332031 -7.1875 4.75 -7.1875 C 3.976562 -7.1875 3.410156 -6.957031 3.046875 -6.5 C 2.691406 -6.039062 2.515625 -5.285156 2.515625 -4.234375 L 2.515625 0 L 1.296875 0 L 1.296875 -8.078125 L 2.296875 -8.078125 L 2.5 -6.984375 L 2.546875 -6.984375 C 2.785156 -7.367188 3.113281 -7.671875 3.53125 -7.890625 C 3.945312 -8.117188 4.414062 -8.234375 4.9375 -8.234375 C 6.207031 -8.234375 7.035156 -7.773438 7.421875 -6.859375 L 7.484375 -6.859375 C 7.722656 -7.285156 8.070312 -7.617188 8.53125 -7.859375 C 8.988281 -8.109375 9.507812 -8.234375 10.09375 -8.234375 C 11.007812 -8.234375 11.691406 -8 12.140625 -7.53125 C 12.597656 -7.0625 12.828125 -6.3125 12.828125 -5.28125 L 12.828125 0 Z M 11.609375 0 "/></g></g></g><g fill="#000000" fill-opacity="1"><g transform="translate(306.52071, 207.345835)"><g><path d="M 4.71875 0.140625 C 3.519531 0.140625 2.570312 -0.21875 1.875 -0.9375 C 1.1875 -1.664062 0.84375 -2.675781 0.84375 -3.96875 C 0.84375 -5.28125 1.164062 -6.316406 1.8125 -7.078125 C 2.457031 -7.847656 3.316406 -8.234375 4.390625 -8.234375 C 5.410156 -8.234375 6.210938 -7.898438 6.796875 -7.234375 C 7.390625 -6.566406 7.6875 -5.6875 7.6875 -4.59375 L 7.6875 -3.828125 L 2.125 -3.828125 C 2.144531 -2.867188 2.378906 -2.144531 2.828125 -1.65625 C 3.285156 -1.164062 3.929688 -0.921875 4.765625 -0.921875 C 5.628906 -0.921875 6.488281 -1.101562 7.34375 -1.46875 L 7.34375 -0.375 C 6.90625 -0.1875 6.492188 -0.0546875 6.109375 0.015625 C 5.722656 0.0976562 5.257812 0.140625 4.71875 0.140625 Z M 4.375 -7.203125 C 3.726562 -7.203125 3.210938 -6.988281 2.828125 -6.5625 C 2.441406 -6.144531 2.210938 -5.5625 2.140625 -4.8125 L 6.375 -4.8125 C 6.375 -5.582031 6.203125 -6.171875 5.859375 -6.578125 C 5.515625 -6.992188 5.019531 -7.203125 4.375 -7.203125 Z M 4.375 -7.203125 "/></g></g></g><g fill="#000000" fill-opacity="1"><g transform="translate(317.140478, 207.345835)"><g><path d="M 6.828125 0 L 6.828125 -5.234375 C 6.828125 -5.890625 6.675781 -6.378906 6.375 -6.703125 C 6.082031 -7.023438 5.613281 -7.1875 4.96875 -7.1875 C 4.125 -7.1875 3.503906 -6.957031 3.109375 -6.5 C 2.710938 -6.050781 2.515625 -5.296875 2.515625 -4.234375 L 2.515625 0 L 1.296875 0 L 1.296875 -8.078125 L 2.296875 -8.078125 L 2.5 -6.984375 L 2.546875 -6.984375 C 2.796875 -7.378906 3.144531 -7.6875 3.59375 -7.90625 C 4.050781 -8.125 4.5625 -8.234375 5.125 -8.234375 C 6.09375 -8.234375 6.820312 -8 7.3125 -7.53125 C 7.8125 -7.0625 8.0625 -6.3125 8.0625 -5.28125 L 8.0625 0 Z M 6.828125 0 "/></g></g></g><g fill="#000000" fill-opacity="1"><g transform="translate(328.556778, 207.345835)"><g><path d="M 3.90625 -0.859375 C 4.125 -0.859375 4.332031 -0.875 4.53125 -0.90625 C 4.738281 -0.9375 4.898438 -0.972656 5.015625 -1.015625 L 5.015625 -0.078125 C 4.878906 -0.015625 4.679688 0.0351562 4.421875 0.078125 C 4.171875 0.117188 3.941406 0.140625 3.734375 0.140625 C 2.171875 0.140625 1.390625 -0.679688 1.390625 -2.328125 L 1.390625 -7.140625 L 0.234375 -7.140625 L 0.234375 -7.71875 L 1.390625 -8.234375 L 1.90625 -9.953125 L 2.609375 -9.953125 L 2.609375 -8.078125 L 4.953125 -8.078125 L 4.953125 -7.140625 L 2.609375 -7.140625 L 2.609375 -2.375 C 2.609375 -1.882812 2.722656 -1.507812 2.953125 -1.25 C 3.191406 -0.988281 3.507812 -0.859375 3.90625 -0.859375 Z M 3.90625 -0.859375 "/></g></g></g><g fill="#000000" fill-opacity="1"><g transform="translate(336.034654, 207.345835)"><g><path d="M 8.28125 -4.046875 C 8.28125 -2.734375 7.945312 -1.707031 7.28125 -0.96875 C 6.613281 -0.226562 5.695312 0.140625 4.53125 0.140625 C 3.8125 0.140625 3.171875 -0.0234375 2.609375 -0.359375 C 2.046875 -0.703125 1.609375 -1.191406 1.296875 -1.828125 C 0.992188 -2.460938 0.84375 -3.203125 0.84375 -4.046875 C 0.84375 -5.367188 1.171875 -6.394531 1.828125 -7.125 C 2.492188 -7.863281 3.410156 -8.234375 4.578125 -8.234375 C 5.710938 -8.234375 6.613281 -7.851562 7.28125 -7.09375 C 7.945312 -6.34375 8.28125 -5.328125 8.28125 -4.046875 Z M 2.125 -4.046875 C 2.125 -3.015625 2.328125 -2.226562 2.734375 -1.6875 C 3.148438 -1.144531 3.757812 -0.875 4.5625 -0.875 C 5.363281 -0.875 5.972656 -1.144531 6.390625 -1.6875 C 6.804688 -2.226562 7.015625 -3.015625 7.015625 -4.046875 C 7.015625 -5.078125 6.804688 -5.859375 6.390625 -6.390625 C 5.972656 -6.921875 5.359375 -7.1875 4.546875 -7.1875 C 3.742188 -7.1875 3.140625 -6.921875 2.734375 -6.390625 C 2.328125 -5.867188 2.125 -5.085938 2.125 -4.046875 Z M 2.125 -4.046875 "/></g></g></g></svg>