<svg xmlns="http://www.w3.org/2000/svg" xmlns:xlink="http://www.w3.org/1999/xlink" width="500" zoomAndPan="magnify" viewBox="0 0 375 225" height="300" preserveAspectRatio="xMidYMid meet" version="1.0"><defs><g/><clipPath id="245d00a73c"><path d="M 98.65625 10.464844 L 276.40625 10.464844 L 276.40625 155.964844 L 98.65625 155.964844 Z M 98.65625 10.464844 " clip-rule="nonzero"/></clipPath></defs><g clip-path="url(#245d00a73c)"><path fill="#000000" d="M 130.972656 92.753906 L 130.972656 125.085938 L 187.53125 155.960938 L 244.085938 125.085938 L 244.085938 92.753906 L 187.53125 123.628906 Z M 187.53125 10.46875 L 98.65625 58.96875 L 187.53125 107.464844 L 260.246094 67.777344 L 260.246094 123.628906 L 276.40625 123.628906 L 276.40625 58.96875 Z M 187.53125 10.46875 " fill-opacity="1" fill-rule="nonzero"/></g><g fill="#000000" fill-opacity="1"><g transform="translate(77.652754, 201.301146)"><g><path d="M 23.0625 -16.90625 C 24.363281 -16.132812 25.351562 -15.144531 26.03125 -13.9375 C 26.707031 -12.738281 27.046875 -11.347656 27.046875 -9.765625 C 27.046875 -8.285156 26.691406 -6.90625 25.984375 -5.625 C 25.273438 -4.34375 24.269531 -3.207031 22.96875 -2.21875 C 21.800781 -1.320312 20.46875 -0.632812 18.96875 -0.15625 C 17.46875 0.320312 15.882812 0.578125 14.21875 0.609375 C 12.550781 0.609375 10.957031 0.378906 9.4375 -0.078125 C 7.925781 -0.546875 6.585938 -1.242188 5.421875 -2.171875 C 3.660156 -3.503906 2.457031 -5.113281 1.8125 -7 L 8.296875 -10 C 8.296875 -9.695312 8.398438 -9.3125 8.609375 -8.84375 C 8.828125 -8.382812 9.164062 -7.9375 9.625 -7.5 C 10.09375 -7.070312 10.695312 -6.703125 11.4375 -6.390625 C 12.175781 -6.078125 13.085938 -5.921875 14.171875 -5.921875 C 15.035156 -5.921875 15.796875 -6.03125 16.453125 -6.25 C 17.117188 -6.46875 17.675781 -6.738281 18.125 -7.0625 C 18.570312 -7.382812 18.910156 -7.753906 19.140625 -8.171875 C 19.378906 -8.585938 19.5 -9.015625 19.5 -9.453125 C 19.5 -9.941406 19.335938 -10.398438 19.015625 -10.828125 C 18.691406 -11.265625 18.1875 -11.609375 17.5 -11.859375 C 16.269531 -12.285156 14.96875 -12.644531 13.59375 -12.9375 C 12.21875 -13.238281 10.878906 -13.613281 9.578125 -14.0625 C 8.285156 -14.507812 7.082031 -15.101562 5.96875 -15.84375 C 4.863281 -16.582031 3.984375 -17.613281 3.328125 -18.9375 C 2.742188 -20.113281 2.453125 -21.363281 2.453125 -22.6875 C 2.453125 -24.175781 2.796875 -25.613281 3.484375 -27 C 4.179688 -28.382812 5.132812 -29.554688 6.34375 -30.515625 C 7.488281 -31.410156 8.769531 -32.097656 10.1875 -32.578125 C 11.601562 -33.054688 13.101562 -33.296875 14.6875 -33.296875 C 16.257812 -33.296875 17.757812 -33.0625 19.1875 -32.59375 C 20.625 -32.132812 21.914062 -31.457031 23.0625 -30.5625 C 24.175781 -29.726562 25.054688 -28.757812 25.703125 -27.65625 L 20.421875 -24.03125 C 19.773438 -24.925781 18.960938 -25.644531 17.984375 -26.1875 C 17.015625 -26.726562 15.929688 -27 14.734375 -27 C 13.054688 -27 11.765625 -26.628906 10.859375 -25.890625 C 9.953125 -25.148438 9.5 -24.175781 9.5 -22.96875 C 9.5 -22.414062 9.75 -21.921875 10.25 -21.484375 C 10.757812 -21.054688 11.425781 -20.671875 12.25 -20.328125 C 13.070312 -19.992188 13.988281 -19.691406 15 -19.421875 C 16.019531 -19.160156 17.03125 -18.898438 18.03125 -18.640625 C 19.039062 -18.378906 19.992188 -18.109375 20.890625 -17.828125 C 21.785156 -17.546875 22.507812 -17.238281 23.0625 -16.90625 Z M 23.0625 -16.90625 "/></g></g></g><g fill="#000000" fill-opacity="1"><g transform="translate(106.408207, 201.301146)"><g><path d="M 15.375 -23.625 C 17.007812 -23.625 18.519531 -23.304688 19.90625 -22.671875 C 21.300781 -22.035156 22.5 -21.171875 23.5 -20.078125 C 24.507812 -18.984375 25.296875 -17.703125 25.859375 -16.234375 C 26.429688 -14.765625 26.71875 -13.195312 26.71875 -11.53125 C 26.71875 -9.863281 26.429688 -8.296875 25.859375 -6.828125 C 25.296875 -5.359375 24.507812 -4.078125 23.5 -2.984375 C 22.5 -1.890625 21.300781 -1.023438 19.90625 -0.390625 C 18.519531 0.242188 17.007812 0.5625 15.375 0.5625 C 14.050781 0.5625 12.753906 0.320312 11.484375 -0.15625 C 10.222656 -0.632812 9.234375 -1.242188 8.515625 -1.984375 L 8.515625 9.171875 L 2.125 9.171875 L 2.125 -22.96875 L 7.59375 -22.96875 L 8.515625 -21.390625 C 9.410156 -22.191406 10.414062 -22.765625 11.53125 -23.109375 C 12.644531 -23.453125 13.925781 -23.625 15.375 -23.625 Z M 14.546875 -5.140625 C 15.378906 -5.140625 16.15625 -5.304688 16.875 -5.640625 C 17.601562 -5.984375 18.238281 -6.441406 18.78125 -7.015625 C 19.320312 -7.585938 19.753906 -8.257812 20.078125 -9.03125 C 20.398438 -9.800781 20.5625 -10.632812 20.5625 -11.53125 C 20.5625 -12.394531 20.398438 -13.21875 20.078125 -14 C 19.753906 -14.789062 19.320312 -15.472656 18.78125 -16.046875 C 18.238281 -16.617188 17.601562 -17.070312 16.875 -17.40625 C 16.15625 -17.75 15.378906 -17.921875 14.546875 -17.921875 C 13.710938 -17.921875 12.929688 -17.804688 12.203125 -17.578125 C 11.472656 -17.347656 10.835938 -16.976562 10.296875 -16.46875 C 9.765625 -15.957031 9.34375 -15.289062 9.03125 -14.46875 C 8.71875 -13.65625 8.5625 -12.675781 8.5625 -11.53125 C 8.5625 -10.445312 8.71875 -9.507812 9.03125 -8.71875 C 9.34375 -7.9375 9.765625 -7.273438 10.296875 -6.734375 C 10.835938 -6.191406 11.472656 -5.789062 12.203125 -5.53125 C 12.929688 -5.269531 13.710938 -5.140625 14.546875 -5.140625 Z M 14.546875 -5.140625 "/></g></g></g><g fill="#000000" fill-opacity="1"><g transform="translate(134.006042, 201.301146)"><g><path d="M 13.4375 -23.625 C 15.164062 -23.625 16.738281 -23.273438 18.15625 -22.578125 C 19.570312 -21.878906 20.789062 -20.96875 21.8125 -19.84375 C 22.832031 -18.71875 23.617188 -17.421875 24.171875 -15.953125 C 24.734375 -14.484375 25.015625 -12.976562 25.015625 -11.4375 C 25.015625 -10.507812 24.890625 -9.519531 24.640625 -8.46875 L 8.25 -8.46875 C 8.863281 -7.425781 9.738281 -6.539062 10.875 -5.8125 C 12.019531 -5.082031 13.257812 -4.71875 14.59375 -4.71875 C 15.914062 -4.71875 17.078125 -4.828125 18.078125 -5.046875 C 19.085938 -5.265625 20.039062 -5.539062 20.9375 -5.875 L 23.0625 -1.9375 C 21.914062 -1.132812 20.609375 -0.515625 19.140625 -0.078125 C 17.679688 0.347656 16.117188 0.5625 14.453125 0.5625 C 12.628906 0.5625 10.929688 0.242188 9.359375 -0.390625 C 7.785156 -1.023438 6.410156 -1.878906 5.234375 -2.953125 C 4.054688 -4.035156 3.128906 -5.316406 2.453125 -6.796875 C 1.773438 -8.285156 1.4375 -9.863281 1.4375 -11.53125 C 1.4375 -13.164062 1.742188 -14.71875 2.359375 -16.1875 C 2.972656 -17.65625 3.828125 -18.9375 4.921875 -20.03125 C 6.023438 -21.125 7.300781 -21.992188 8.75 -22.640625 C 10.207031 -23.296875 11.769531 -23.625 13.4375 -23.625 Z M 18.65625 -13.4375 C 18.289062 -14.757812 17.628906 -15.835938 16.671875 -16.671875 C 15.710938 -17.503906 14.632812 -17.921875 13.4375 -17.921875 C 12.195312 -17.921875 11.070312 -17.503906 10.0625 -16.671875 C 9.0625 -15.835938 8.378906 -14.757812 8.015625 -13.4375 Z M 18.65625 -13.4375 "/></g></g></g><g fill="#000000" fill-opacity="1"><g transform="translate(161.789084, 201.301146)"><g><path d="M 13.390625 -17.921875 C 12.609375 -17.921875 11.878906 -17.742188 11.203125 -17.390625 C 10.523438 -17.035156 9.929688 -16.554688 9.421875 -15.953125 C 8.910156 -15.347656 8.507812 -14.644531 8.21875 -13.84375 C 7.925781 -13.039062 7.78125 -12.175781 7.78125 -11.25 C 7.78125 -10.320312 7.925781 -9.476562 8.21875 -8.71875 C 8.507812 -7.96875 8.910156 -7.320312 9.421875 -6.78125 C 9.929688 -6.238281 10.523438 -5.8125 11.203125 -5.5 C 11.878906 -5.195312 12.609375 -5.046875 13.390625 -5.046875 C 14.335938 -5.046875 15.265625 -5.269531 16.171875 -5.71875 C 17.085938 -6.164062 17.875 -6.789062 18.53125 -7.59375 L 22.46875 -3.703125 C 21.382812 -2.410156 20.050781 -1.375 18.46875 -0.59375 C 16.894531 0.175781 15.203125 0.5625 13.390625 0.5625 C 11.722656 0.5625 10.160156 0.242188 8.703125 -0.390625 C 7.253906 -1.023438 5.988281 -1.890625 4.90625 -2.984375 C 3.820312 -4.078125 2.960938 -5.359375 2.328125 -6.828125 C 1.703125 -8.296875 1.390625 -9.863281 1.390625 -11.53125 C 1.390625 -13.195312 1.703125 -14.765625 2.328125 -16.234375 C 2.960938 -17.703125 3.820312 -18.984375 4.90625 -20.078125 C 5.988281 -21.171875 7.253906 -22.035156 8.703125 -22.671875 C 10.160156 -23.304688 11.722656 -23.625 13.390625 -23.625 C 15.265625 -23.625 17.003906 -23.222656 18.609375 -22.421875 C 20.222656 -21.617188 21.582031 -20.519531 22.6875 -19.125 L 18.25 -15.703125 C 17.351562 -16.535156 16.539062 -17.113281 15.8125 -17.4375 C 15.09375 -17.757812 14.285156 -17.921875 13.390625 -17.921875 Z M 13.390625 -17.921875 "/></g></g></g><g fill="#000000" fill-opacity="1"><g transform="translate(185.867741, 201.301146)"><g><path d="M 14.8125 -13.4375 L 24.5 0 L 16.859375 0 L 10.796875 -9.171875 L 8.515625 -6.71875 L 8.515625 0 L 2.125 0 L 2.125 -33.8125 L 8.515625 -33.8125 L 8.515625 -15.046875 L 15.984375 -22.96875 L 23.765625 -22.96875 Z M 14.8125 -13.4375 "/></g></g></g><g fill="#000000" fill-opacity="1"><g transform="translate(210.918806, 201.301146)"><g><path d="M 24.21875 -32.828125 L 31.265625 -32.828125 L 31.265625 0 L 24.21875 0 L 24.21875 -14.125 L 9.171875 -14.125 L 9.171875 0 L 2.171875 0 L 2.171875 -32.828125 L 9.171875 -32.828125 L 9.171875 -20.515625 L 24.21875 -20.515625 Z M 24.21875 -32.828125 "/></g></g></g><g fill="#000000" fill-opacity="1"><g transform="translate(244.5826, 201.301146)"><g><path d="M 16.625 -22.96875 L 23.015625 -22.96875 L 23.015625 0 L 17.546875 0 L 16.625 -1.765625 C 15.882812 -1.234375 15.039062 -0.804688 14.09375 -0.484375 C 13.15625 -0.160156 12.144531 0 11.0625 0 C 10.226562 0 9.28125 -0.117188 8.21875 -0.359375 C 7.15625 -0.609375 6.160156 -1.070312 5.234375 -1.75 C 4.304688 -2.4375 3.523438 -3.378906 2.890625 -4.578125 C 2.253906 -5.785156 1.9375 -7.347656 1.9375 -9.265625 L 1.9375 -22.96875 L 8.375 -22.96875 L 8.375 -9.5 C 8.375 -8.78125 8.488281 -8.175781 8.71875 -7.6875 C 8.957031 -7.195312 9.269531 -6.800781 9.65625 -6.5 C 10.039062 -6.207031 10.476562 -5.992188 10.96875 -5.859375 C 11.46875 -5.722656 11.976562 -5.65625 12.5 -5.65625 C 12.90625 -5.65625 13.347656 -5.722656 13.828125 -5.859375 C 14.304688 -5.992188 14.753906 -6.21875 15.171875 -6.53125 C 15.585938 -6.84375 15.929688 -7.242188 16.203125 -7.734375 C 16.484375 -8.222656 16.625 -8.8125 16.625 -9.5 Z M 16.625 -22.96875 "/></g></g></g><g fill="#000000" fill-opacity="1"><g transform="translate(269.957791, 201.301146)"><g><path d="M 15.375 -23.625 C 16.976562 -23.625 18.472656 -23.304688 19.859375 -22.671875 C 21.253906 -22.035156 22.460938 -21.171875 23.484375 -20.078125 C 24.503906 -18.984375 25.296875 -17.703125 25.859375 -16.234375 C 26.429688 -14.765625 26.71875 -13.195312 26.71875 -11.53125 C 26.71875 -9.863281 26.429688 -8.296875 25.859375 -6.828125 C 25.296875 -5.359375 24.503906 -4.078125 23.484375 -2.984375 C 22.460938 -1.890625 21.253906 -1.023438 19.859375 -0.390625 C 18.472656 0.242188 16.976562 0.5625 15.375 0.5625 C 14.019531 0.5625 12.71875 0.320312 11.46875 -0.15625 C 10.21875 -0.632812 9.234375 -1.242188 8.515625 -1.984375 L 7.59375 0 L 2.125 0 L 2.125 -33.8125 L 8.515625 -33.8125 L 8.515625 -21.125 C 10.273438 -22.789062 12.5625 -23.625 15.375 -23.625 Z M 14.5 -5.140625 C 15.332031 -5.140625 16.109375 -5.304688 16.828125 -5.640625 C 17.554688 -5.984375 18.195312 -6.441406 18.75 -7.015625 C 19.3125 -7.585938 19.742188 -8.257812 20.046875 -9.03125 C 20.359375 -9.800781 20.515625 -10.632812 20.515625 -11.53125 C 20.515625 -12.394531 20.359375 -13.21875 20.046875 -14 C 19.742188 -14.789062 19.3125 -15.472656 18.75 -16.046875 C 18.195312 -16.617188 17.554688 -17.070312 16.828125 -17.40625 C 16.109375 -17.75 15.332031 -17.921875 14.5 -17.921875 C 13.664062 -17.921875 12.882812 -17.804688 12.15625 -17.578125 C 11.425781 -17.347656 10.789062 -16.976562 10.25 -16.46875 C 9.71875 -15.957031 9.296875 -15.289062 8.984375 -14.46875 C 8.671875 -13.65625 8.515625 -12.644531 8.515625 -11.4375 C 8.515625 -10.351562 8.671875 -9.414062 8.984375 -8.625 C 9.296875 -7.84375 9.71875 -7.195312 10.25 -6.6875 C 10.789062 -6.175781 11.425781 -5.789062 12.15625 -5.53125 C 12.882812 -5.269531 13.664062 -5.140625 14.5 -5.140625 Z M 14.5 -5.140625 "/></g></g></g></svg>