<svg xmlns="http://www.w3.org/2000/svg" xmlns:xlink="http://www.w3.org/1999/xlink" width="500" zoomAndPan="magnify" viewBox="0 0 375 225" height="300" preserveAspectRatio="xMidYMid meet" version="1.0"><defs><g/><clipPath id="19402c05aa"><path d="M 13.210938 11.0625 L 168.460938 11.0625 L 168.460938 213.5625 L 13.210938 213.5625 Z M 13.210938 11.0625 " clip-rule="nonzero"/></clipPath></defs><g clip-path="url(#19402c05aa)"><path fill="#ffffff" d="M 87.808594 75.191406 L 75.464844 87.535156 L 146.132812 158.203125 L 90.300781 213.925781 L 30.203125 153.828125 L 39.769531 144.261719 L 90.300781 194.796875 L 126.761719 158.335938 L 115.445312 147.015625 L 93.667969 168.792969 L 93.519531 168.648438 L 93.386719 168.78125 L 13.304688 88.695312 L 22.871094 79.128906 L 93.539062 149.796875 L 105.882812 137.449219 L 35.210938 66.789062 L 91.046875 11.0625 L 151.144531 71.164062 L 141.578125 80.730469 L 91.046875 30.191406 L 54.585938 66.652344 L 65.902344 77.972656 L 87.679688 56.195312 L 87.828125 56.339844 L 87.960938 56.207031 L 168.046875 136.292969 L 158.480469 145.859375 Z M 87.808594 75.191406 " fill-opacity="1" fill-rule="nonzero"/></g><g fill="#ffffff" fill-opacity="1"><g transform="translate(168.13278, 123.196549)"><g><path d="M 32.40625 -37.78125 L 21.859375 -37.78125 L 21.859375 -41.828125 C 21.859375 -42.253906 21.710938 -42.625 21.421875 -42.9375 C 21.140625 -43.25 20.785156 -43.40625 20.359375 -43.40625 L 16 -43.40625 C 15.582031 -43.40625 15.226562 -43.25 14.9375 -42.9375 C 14.644531 -42.625 14.5 -42.253906 14.5 -41.828125 L 14.5 -32.71875 C 14.5 -32.289062 14.644531 -31.921875 14.9375 -31.609375 C 15.226562 -31.296875 15.582031 -31.140625 16 -31.140625 L 23.125 -31.140625 C 29.675781 -31.023438 32.953125 -27.535156 32.953125 -20.671875 L 32.953125 -9.671875 C 32.953125 -2.691406 29.675781 0.796875 23.125 0.796875 L 13.78125 0.796875 C 7.238281 0.796875 3.96875 -2.691406 3.96875 -9.671875 L 3.96875 -14.96875 L 14.5 -14.96875 L 14.5 -9.265625 C 14.5 -8.847656 14.644531 -8.476562 14.9375 -8.15625 C 15.226562 -7.84375 15.582031 -7.6875 16 -7.6875 L 20.90625 -7.6875 C 21.332031 -7.6875 21.691406 -7.84375 21.984375 -8.15625 C 22.273438 -8.476562 22.421875 -8.847656 22.421875 -9.265625 L 22.421875 -19.328125 C 22.421875 -19.753906 22.273438 -20.125 21.984375 -20.4375 C 21.691406 -20.75 21.332031 -20.90625 20.90625 -20.90625 L 13.78125 -20.90625 C 7.238281 -20.90625 3.96875 -24.394531 3.96875 -31.375 L 3.96875 -41.59375 C 3.96875 -48.5625 7.238281 -52.046875 13.78125 -52.046875 L 22.578125 -52.046875 C 29.128906 -52.046875 32.40625 -48.5625 32.40625 -41.59375 Z M 32.40625 -37.78125 "/></g></g></g><g fill="#ffffff" fill-opacity="1"><g transform="translate(204.408797, 123.196549)"><g><path d="M 22.34375 0.796875 L 20.671875 0.796875 C 17.984375 0.796875 15.820312 0.160156 14.1875 -1.109375 L 14.1875 12.59375 L 3.5625 12.59375 L 3.5625 -38.65625 L 12.515625 -38.65625 L 12.515625 -35.8125 C 14.148438 -38.238281 16.867188 -39.453125 20.671875 -39.453125 L 22.34375 -39.453125 C 28.882812 -39.453125 32.15625 -35.96875 32.15625 -29 L 32.15625 -9.671875 C 32.15625 -2.691406 28.882812 0.796875 22.34375 0.796875 Z M 14.1875 -30.265625 L 14.1875 -8.390625 C 14.1875 -7.972656 14.328125 -7.601562 14.609375 -7.28125 C 14.898438 -6.96875 15.257812 -6.8125 15.6875 -6.8125 L 20.046875 -6.8125 C 20.460938 -6.8125 20.816406 -6.96875 21.109375 -7.28125 C 21.398438 -7.601562 21.546875 -7.972656 21.546875 -8.390625 L 21.546875 -30.265625 C 21.546875 -30.679688 21.398438 -31.046875 21.109375 -31.359375 C 20.816406 -31.679688 20.460938 -31.84375 20.046875 -31.84375 L 15.6875 -31.84375 C 15.257812 -31.84375 14.898438 -31.679688 14.609375 -31.359375 C 14.328125 -31.046875 14.1875 -30.679688 14.1875 -30.265625 Z M 14.1875 -30.265625 "/></g></g></g><g fill="#ffffff" fill-opacity="1"><g transform="translate(240.209593, 123.196549)"><g><path d="M 22.34375 -39.453125 C 28.882812 -39.453125 32.15625 -35.96875 32.15625 -29 L 32.15625 -16.484375 L 14.1875 -16.484375 L 14.1875 -8.390625 C 14.1875 -7.972656 14.328125 -7.601562 14.609375 -7.28125 C 14.898438 -6.96875 15.257812 -6.8125 15.6875 -6.8125 L 20.046875 -6.8125 C 20.460938 -6.8125 20.816406 -6.96875 21.109375 -7.28125 C 21.398438 -7.601562 21.546875 -7.972656 21.546875 -8.390625 L 21.546875 -12.671875 L 32.15625 -12.671875 L 32.15625 -9.671875 C 32.15625 -2.691406 28.882812 0.796875 22.34375 0.796875 L 13.390625 0.796875 C 6.835938 0.796875 3.5625 -2.691406 3.5625 -9.671875 L 3.5625 -29 C 3.5625 -35.96875 6.835938 -39.453125 13.390625 -39.453125 Z M 14.1875 -23.453125 L 21.546875 -23.453125 L 21.546875 -30.578125 C 21.546875 -31.003906 21.398438 -31.375 21.109375 -31.6875 C 20.816406 -32 20.460938 -32.15625 20.046875 -32.15625 L 15.6875 -32.15625 C 15.257812 -32.15625 14.898438 -32 14.609375 -31.6875 C 14.328125 -31.375 14.1875 -31.003906 14.1875 -30.578125 Z M 14.1875 -23.453125 "/></g></g></g><g fill="#ffffff" fill-opacity="1"><g transform="translate(274.663884, 123.196549)"><g><path d="M 32.15625 -23.453125 L 21.546875 -23.453125 L 21.546875 -30.265625 C 21.546875 -30.679688 21.398438 -31.046875 21.109375 -31.359375 C 20.816406 -31.679688 20.460938 -31.84375 20.046875 -31.84375 L 15.6875 -31.84375 C 15.257812 -31.84375 14.898438 -31.679688 14.609375 -31.359375 C 14.328125 -31.046875 14.1875 -30.679688 14.1875 -30.265625 L 14.1875 -8.390625 C 14.1875 -7.972656 14.328125 -7.601562 14.609375 -7.28125 C 14.898438 -6.96875 15.257812 -6.8125 15.6875 -6.8125 L 20.046875 -6.8125 C 20.460938 -6.8125 20.816406 -6.96875 21.109375 -7.28125 C 21.398438 -7.601562 21.546875 -7.972656 21.546875 -8.390625 L 21.546875 -15.203125 L 32.15625 -15.203125 L 32.15625 -9.671875 C 32.15625 -2.691406 28.882812 0.796875 22.34375 0.796875 L 13.390625 0.796875 C 6.835938 0.796875 3.5625 -2.691406 3.5625 -9.671875 L 3.5625 -29 C 3.5625 -35.96875 6.835938 -39.453125 13.390625 -39.453125 L 22.34375 -39.453125 C 28.882812 -39.453125 32.15625 -35.96875 32.15625 -29 Z M 32.15625 -23.453125 "/></g></g></g><g fill="#ffffff" fill-opacity="1"><g transform="translate(309.989434, 123.196549)"><g><path d="M 33.984375 -38.65625 L 26.0625 -20.515625 L 35.25 0 L 24.640625 0 L 17.34375 -16.078125 L 14.1875 -16.078125 L 14.1875 0 L 3.5625 0 L 3.5625 -51.25 L 14.1875 -51.25 L 14.1875 -24.796875 L 17.75 -24.796875 L 23.53125 -38.65625 Z M 33.984375 -38.65625 "/></g></g></g><g fill="#ffffff" fill-opacity="1"><g transform="translate(223.270539, 146.675692)"><g><path d="M 0.609375 0 L 2.625 -18.75 L 5.53125 -18.75 L 7.53125 0 L 5.9375 0 L 5.4375 -5.4375 L 2.703125 -5.4375 L 2.203125 0 Z M 2.84375 -6.84375 L 5.296875 -6.84375 L 4.921875 -10.953125 L 4.40625 -17.34375 L 3.75 -17.34375 L 3.21875 -10.921875 Z M 2.84375 -6.84375 "/></g></g></g><g fill="#ffffff" fill-opacity="1"><g transform="translate(234.51625, 146.675692)"><g><path d="M 1.25 0 L 1.25 -18.75 L 4.078125 -18.75 C 5.140625 -18.75 5.910156 -18.515625 6.390625 -18.046875 C 6.878906 -17.578125 7.140625 -16.804688 7.171875 -15.734375 C 7.222656 -14.679688 7.25 -13.738281 7.25 -12.90625 C 7.25 -12.070312 7.222656 -11.222656 7.171875 -10.359375 C 7.140625 -9.285156 6.878906 -8.515625 6.390625 -8.046875 C 5.910156 -7.578125 5.140625 -7.34375 4.078125 -7.34375 L 2.796875 -7.34375 L 2.796875 0 Z M 2.796875 -8.71875 L 4.078125 -8.71875 C 4.609375 -8.71875 4.992188 -8.847656 5.234375 -9.109375 C 5.484375 -9.367188 5.613281 -9.765625 5.625 -10.296875 C 5.6875 -12.117188 5.6875 -13.953125 5.625 -15.796875 C 5.613281 -16.328125 5.484375 -16.71875 5.234375 -16.96875 C 4.992188 -17.21875 4.609375 -17.34375 4.078125 -17.34375 L 2.796875 -17.34375 Z M 2.796875 -8.71875 "/></g></g></g><g fill="#ffffff" fill-opacity="1"><g transform="translate(245.621399, 146.675692)"><g><path d="M 1.25 0 L 1.25 -18.75 L 4.078125 -18.75 C 5.140625 -18.75 5.910156 -18.515625 6.390625 -18.046875 C 6.878906 -17.578125 7.140625 -16.804688 7.171875 -15.734375 C 7.222656 -14.679688 7.25 -13.738281 7.25 -12.90625 C 7.25 -12.070312 7.222656 -11.222656 7.171875 -10.359375 C 7.140625 -9.285156 6.878906 -8.515625 6.390625 -8.046875 C 5.910156 -7.578125 5.140625 -7.34375 4.078125 -7.34375 L 2.796875 -7.34375 L 2.796875 0 Z M 2.796875 -8.71875 L 4.078125 -8.71875 C 4.609375 -8.71875 4.992188 -8.847656 5.234375 -9.109375 C 5.484375 -9.367188 5.613281 -9.765625 5.625 -10.296875 C 5.6875 -12.117188 5.6875 -13.953125 5.625 -15.796875 C 5.613281 -16.328125 5.484375 -16.71875 5.234375 -16.96875 C 4.992188 -17.21875 4.609375 -17.34375 4.078125 -17.34375 L 2.796875 -17.34375 Z M 2.796875 -8.71875 "/></g></g></g><g fill="#ffffff" fill-opacity="1"><g transform="translate(256.726549, 146.675692)"><g><path d="M 1.25 0 L 1.25 -18.75 L 2.796875 -18.75 L 2.796875 -1.40625 L 6.546875 -1.40625 L 6.546875 0 Z M 1.25 0 "/></g></g></g><g fill="#ffffff" fill-opacity="1"><g transform="translate(267.128929, 146.675692)"><g><path d="M 1.25 0 L 1.25 -18.75 L 2.796875 -18.75 L 2.796875 0 Z M 1.25 0 "/></g></g></g><g fill="#ffffff" fill-opacity="1"><g transform="translate(274.415598, 146.675692)"><g><path d="M 4.3125 0.171875 C 3.25 0.171875 2.484375 -0.0664062 2.015625 -0.546875 C 1.546875 -1.023438 1.304688 -1.8125 1.296875 -2.90625 C 1.265625 -5.113281 1.25 -7.265625 1.25 -9.359375 C 1.25 -11.460938 1.265625 -13.617188 1.296875 -15.828125 C 1.304688 -16.835938 1.546875 -17.597656 2.015625 -18.109375 C 2.484375 -18.628906 3.25 -18.890625 4.3125 -18.890625 C 5.375 -18.890625 6.144531 -18.648438 6.625 -18.171875 C 7.101562 -17.703125 7.359375 -16.921875 7.390625 -15.828125 C 7.398438 -15.523438 7.40625 -15.144531 7.40625 -14.6875 C 7.40625 -14.238281 7.398438 -13.789062 7.390625 -13.34375 C 7.390625 -12.90625 7.390625 -12.535156 7.390625 -12.234375 L 5.8125 -12.234375 C 5.832031 -12.828125 5.84375 -13.460938 5.84375 -14.140625 C 5.851562 -14.828125 5.851562 -15.46875 5.84375 -16.0625 C 5.820312 -16.601562 5.691406 -16.988281 5.453125 -17.21875 C 5.222656 -17.457031 4.84375 -17.578125 4.3125 -17.578125 C 3.800781 -17.578125 3.429688 -17.457031 3.203125 -17.21875 C 2.972656 -16.988281 2.851562 -16.601562 2.84375 -16.0625 C 2.789062 -13.75 2.765625 -11.519531 2.765625 -9.375 C 2.765625 -7.238281 2.789062 -5.003906 2.84375 -2.671875 C 2.851562 -2.128906 2.972656 -1.738281 3.203125 -1.5 C 3.441406 -1.269531 3.8125 -1.15625 4.3125 -1.15625 C 4.875 -1.15625 5.28125 -1.269531 5.53125 -1.5 C 5.78125 -1.738281 5.914062 -2.128906 5.9375 -2.671875 C 5.945312 -3.316406 5.945312 -4 5.9375 -4.71875 C 5.9375 -5.4375 5.925781 -6.113281 5.90625 -6.75 L 7.484375 -6.75 C 7.492188 -6.09375 7.5 -5.453125 7.5 -4.828125 C 7.5 -4.203125 7.492188 -3.5625 7.484375 -2.90625 C 7.453125 -1.8125 7.191406 -1.023438 6.703125 -0.546875 C 6.222656 -0.0664062 5.425781 0.171875 4.3125 0.171875 Z M 4.3125 0.171875 "/></g></g></g><g fill="#ffffff" fill-opacity="1"><g transform="translate(286.082997, 146.675692)"><g><path d="M 0.609375 0 L 2.625 -18.75 L 5.53125 -18.75 L 7.53125 0 L 5.9375 0 L 5.4375 -5.4375 L 2.703125 -5.4375 L 2.203125 0 Z M 2.84375 -6.84375 L 5.296875 -6.84375 L 4.921875 -10.953125 L 4.40625 -17.34375 L 3.75 -17.34375 L 3.21875 -10.921875 Z M 2.84375 -6.84375 "/></g></g></g><g fill="#ffffff" fill-opacity="1"><g transform="translate(297.328708, 146.675692)"><g><path d="M 3 0 L 3 -17.34375 L 0.609375 -17.34375 L 0.609375 -18.75 L 6.9375 -18.75 L 6.9375 -17.34375 L 4.578125 -17.34375 L 4.578125 0 Z M 3 0 "/></g></g></g><g fill="#ffffff" fill-opacity="1"><g transform="translate(308.152753, 146.675692)"><g><path d="M 1.25 0 L 1.25 -18.75 L 2.796875 -18.75 L 2.796875 0 Z M 1.25 0 "/></g></g></g><g fill="#ffffff" fill-opacity="1"><g transform="translate(315.439422, 146.675692)"><g><path d="M 4.390625 0.171875 C 3.304688 0.171875 2.523438 -0.0625 2.046875 -0.53125 C 1.578125 -1.007812 1.332031 -1.796875 1.3125 -2.890625 C 1.269531 -5.117188 1.25 -7.273438 1.25 -9.359375 C 1.25 -11.453125 1.269531 -13.625 1.3125 -15.875 C 1.332031 -16.96875 1.578125 -17.75 2.046875 -18.21875 C 2.523438 -18.6875 3.304688 -18.921875 4.390625 -18.921875 C 5.484375 -18.921875 6.265625 -18.6875 6.734375 -18.21875 C 7.203125 -17.75 7.453125 -16.96875 7.484375 -15.875 C 7.515625 -13.625 7.53125 -11.453125 7.53125 -9.359375 C 7.53125 -7.273438 7.515625 -5.117188 7.484375 -2.890625 C 7.453125 -1.796875 7.203125 -1.007812 6.734375 -0.53125 C 6.265625 -0.0625 5.484375 0.171875 4.390625 0.171875 Z M 4.390625 -1.171875 C 4.929688 -1.171875 5.316406 -1.28125 5.546875 -1.5 C 5.785156 -1.71875 5.90625 -2.101562 5.90625 -2.65625 C 5.988281 -4.945312 6.023438 -7.203125 6.015625 -9.421875 C 6.003906 -11.640625 5.96875 -13.867188 5.90625 -16.109375 C 5.90625 -16.648438 5.785156 -17.03125 5.546875 -17.25 C 5.316406 -17.46875 4.929688 -17.578125 4.390625 -17.578125 C 3.859375 -17.578125 3.472656 -17.46875 3.234375 -17.25 C 3.003906 -17.03125 2.878906 -16.648438 2.859375 -16.109375 C 2.796875 -13.867188 2.765625 -11.640625 2.765625 -9.421875 C 2.765625 -7.203125 2.796875 -4.945312 2.859375 -2.65625 C 2.878906 -2.101562 3.003906 -1.71875 3.234375 -1.5 C 3.472656 -1.28125 3.859375 -1.171875 4.390625 -1.171875 Z M 4.390625 -1.171875 "/></g></g></g><g fill="#ffffff" fill-opacity="1"><g transform="translate(327.458211, 146.675692)"><g><path d="M 1.25 0 L 1.25 -18.75 L 4.03125 -18.75 L 5.046875 -12.828125 L 6.796875 -1.40625 L 7.296875 -1.40625 L 7.0625 -12.171875 L 6.9375 -18.75 L 8.46875 -18.75 L 8.46875 0 L 5.609375 0 L 4.5 -6.734375 L 2.9375 -17.34375 L 2.4375 -17.34375 L 2.65625 -7.078125 L 2.765625 0 Z M 1.25 0 "/></g></g></g><g fill="#ffffff" fill-opacity="1"><g transform="translate(340.41405, 146.675692)"><g><path d="M 4.390625 0.171875 C 3.304688 0.171875 2.53125 -0.0664062 2.0625 -0.546875 C 1.59375 -1.023438 1.335938 -1.820312 1.296875 -2.9375 C 1.273438 -3.65625 1.265625 -4.289062 1.265625 -4.84375 C 1.265625 -5.394531 1.289062 -6.039062 1.34375 -6.78125 L 2.8125 -6.78125 C 2.78125 -6.09375 2.765625 -5.40625 2.765625 -4.71875 C 2.765625 -4.03125 2.78125 -3.359375 2.8125 -2.703125 C 2.84375 -2.171875 2.972656 -1.78125 3.203125 -1.53125 C 3.441406 -1.289062 3.835938 -1.171875 4.390625 -1.171875 C 4.898438 -1.171875 5.269531 -1.289062 5.5 -1.53125 C 5.726562 -1.78125 5.859375 -2.171875 5.890625 -2.703125 C 5.921875 -3.140625 5.9375 -3.53125 5.9375 -3.875 C 5.9375 -4.21875 5.929688 -4.570312 5.921875 -4.9375 C 5.910156 -5.300781 5.898438 -5.726562 5.890625 -6.21875 C 5.867188 -6.8125 5.785156 -7.300781 5.640625 -7.6875 C 5.492188 -8.082031 5.203125 -8.332031 4.765625 -8.4375 L 3.515625 -8.765625 C 2.609375 -8.984375 2.015625 -9.378906 1.734375 -9.953125 C 1.453125 -10.535156 1.296875 -11.367188 1.265625 -12.453125 C 1.253906 -12.960938 1.25 -13.515625 1.25 -14.109375 C 1.257812 -14.703125 1.273438 -15.28125 1.296875 -15.84375 C 1.304688 -16.9375 1.546875 -17.722656 2.015625 -18.203125 C 2.484375 -18.679688 3.273438 -18.921875 4.390625 -18.921875 C 5.421875 -18.921875 6.164062 -18.679688 6.625 -18.203125 C 7.082031 -17.722656 7.335938 -16.9375 7.390625 -15.84375 C 7.390625 -15.40625 7.390625 -14.867188 7.390625 -14.234375 C 7.390625 -13.609375 7.378906 -12.953125 7.359375 -12.265625 L 5.859375 -12.265625 C 5.878906 -12.890625 5.890625 -13.519531 5.890625 -14.15625 C 5.890625 -14.800781 5.878906 -15.441406 5.859375 -16.078125 C 5.828125 -17.078125 5.328125 -17.578125 4.359375 -17.578125 C 3.828125 -17.578125 3.445312 -17.457031 3.21875 -17.21875 C 3 -16.976562 2.875 -16.597656 2.84375 -16.078125 C 2.8125 -15.472656 2.796875 -14.867188 2.796875 -14.265625 C 2.796875 -13.660156 2.8125 -13.054688 2.84375 -12.453125 C 2.851562 -11.742188 2.929688 -11.21875 3.078125 -10.875 C 3.234375 -10.53125 3.546875 -10.296875 4.015625 -10.171875 L 5.15625 -9.890625 C 6.082031 -9.671875 6.6875 -9.265625 6.96875 -8.671875 C 7.257812 -8.078125 7.421875 -7.257812 7.453125 -6.21875 C 7.472656 -5.726562 7.484375 -5.316406 7.484375 -4.984375 C 7.484375 -4.660156 7.476562 -4.34375 7.46875 -4.03125 C 7.457031 -3.71875 7.453125 -3.351562 7.453125 -2.9375 C 7.410156 -1.820312 7.15625 -1.023438 6.6875 -0.546875 C 6.21875 -0.0664062 5.453125 0.171875 4.390625 0.171875 Z M 4.390625 0.171875 "/></g></g></g></svg>